<svg xmlns="http://www.w3.org/2000/svg" viewBox="0 0 73.68 39.61"><defs><style>.cls-1{fill:#e9262a;}.cls-2{fill:#40c2d1;}.cls-3{fill:#ffe2b3;}.cls-4{fill:#231f20;}.cls-5{fill:#ffebb6;}.cls-6{fill:#feeacc;}.cls-7{fill:#fff;}</style></defs><g id="Layer_2" data-name="Layer 2"><g id="Layer_1-2" data-name="Layer 1"><path class="cls-1" d="M3.33,6.59H9.79a0,0,0,0,1,0,0V28.7a0,0,0,0,1,0,0H3.33a2.08,2.08,0,0,1-2.08-2.08V8.67A2.08,2.08,0,0,1,3.33,6.59Z"/><path class="cls-2" d="M66,4.18h6.46a0,0,0,0,1,0,0v22.1a0,0,0,0,1,0,0H66a2.08,2.08,0,0,1-2.08-2.08V6.26A2.08,2.08,0,0,1,66,4.18Z" transform="translate(136.33 30.47) rotate(180)"/><path class="cls-3" d="M29.53,6.52,24.85,1.84a2,2,0,0,0-2.86,0L16.41,7.42A2.06,2.06,0,0,1,15,8H11.82a2,2,0,0,0-2,2V25.26a2,2,0,0,0,2,2H22.19a2,2,0,0,1,1.34.5l.09.09,4.65,4.63.79.79,3,3a.8.8,0,0,0,1.16,0l.85-.85a2,2,0,0,0,0-2.87l-3-3,.09-.09.78.79L35.6,34l-.07.08s.83,1.14,1.2,1.21,2.13-2.14,2.13-2.14a2,2,0,0,0,0-2.86l-3.37-3.38-1.76-1.74.09-.09,1.74,1.76,4.81,4.81-.07.07s.77,1.13,1.19,1.21,2.13-2.12,2.13-2.12a2,2,0,0,0,0-2.87L36,20.24l.09-.09,3.07,3.08,6,6-.07.08,1,1a2,2,0,0,0,2.87,0l.77-.79a2,2,0,0,0,0-2.86l-.26-.27L34.06,11.05"/><polygon class="cls-4" points="40.37 31.6 40.3 31.67 35.56 26.79 40.37 31.6"/><rect class="cls-4" x="31.52" y="29.44" width="0.12" height="1.11" transform="translate(-11.96 31.11) rotate(-45)"/><polygon class="cls-4" points="35.56 26.79 35.49 26.86 33.73 25.12 33.82 25.03 35.56 26.79"/><rect class="cls-4" x="37.49" y="19.56" width="0.12" height="4.34" transform="translate(-4.37 32.92) rotate(-45)"/><polygon class="cls-4" points="35.6 33.95 35.53 34.03 31.14 29.65 31.23 29.56 32.01 30.35 35.6 33.95"/><polygon class="cls-4" points="35.6 33.95 35.53 34.03 31.14 29.65 31.23 29.56 32.01 30.35 35.6 33.95"/><polygon class="cls-4" points="40.37 31.6 40.3 31.67 35.49 26.86 33.73 25.12 33.82 25.03 35.56 26.79 40.37 31.6"/><polygon class="cls-4" points="45.13 29.24 45.06 29.32 35.97 20.24 36.06 20.15 39.13 23.23 45.13 29.24"/><polygon class="cls-4" points="45.13 29.24 45.06 29.32 35.97 20.24 36.06 20.15 39.13 23.23 45.13 29.24"/><path class="cls-5" d="M58.38,5.6a5.33,5.33,0,0,0-5.24-4.35H34.79L24.7,11.35l4.53,4.53L39.32,5.77l-5.26,5.28L49.41,26.38h6.47a2.56,2.56,0,0,0,2.4-1.64h5.17V5.6Z"/><polyline class="cls-4" points="34.06 11.05 49.41 26.38 49.67 26.65"/><rect class="cls-6" x="23.1" y="28.96" width="3.56" height="5.42" transform="translate(-15.11 26.87) rotate(-45)"/><path class="cls-6" d="M24.75,29l-2.52,2.52L21.7,31,18.38,27.7l.41-.41h3.4a2,2,0,0,1,1.34.5Z"/><rect class="cls-6" x="26.61" y="32.47" width="3.56" height="5.42" transform="translate(-16.56 30.38) rotate(-45)"/><path class="cls-7" d="M3.93,26.62v-18A2.08,2.08,0,0,1,6,6.59H3.33A2.08,2.08,0,0,0,1.25,8.67v18A2.08,2.08,0,0,0,3.33,28.7H6A2.08,2.08,0,0,1,3.93,26.62Z"/><rect class="cls-7" x="63.89" y="4.18" width="3.64" height="22.1"/><path class="cls-7" d="M11.82,11.78H15a2,2,0,0,0,1.44-.59L22,5.61a2,2,0,0,1,2.86,0l4.68,4.68,4.53,4.53L49.22,30l.45-.46a2,2,0,0,0,0-2.86l-.26-.27L34.06,11.05,29.53,6.52,24.85,1.84a2,2,0,0,0-2.86,0L16.41,7.42A2.06,2.06,0,0,1,15,8H11.82a2,2,0,0,0-2,2v3.78A2,2,0,0,1,11.82,11.78Z"/><polygon class="cls-7" points="40.37 31.6 40.3 31.67 35.56 26.79 40.37 31.6"/><rect class="cls-7" x="31.52" y="29.44" width="0.12" height="1.11" transform="translate(-11.96 31.11) rotate(-45)"/><polygon class="cls-7" points="35.56 26.79 35.49 26.86 33.73 25.12 33.82 25.03 35.56 26.79"/><rect class="cls-7" x="37.49" y="19.56" width="0.12" height="4.34" transform="translate(-4.37 32.92) rotate(-45)"/><polygon class="cls-7" points="35.6 33.95 35.53 34.03 31.14 29.65 31.23 29.56 32.01 30.35 35.6 33.95"/><polygon class="cls-7" points="35.6 33.95 35.53 34.03 31.14 29.65 31.23 29.56 32.01 30.35 35.6 33.95"/><polygon class="cls-7" points="40.37 31.6 40.3 31.67 35.49 26.86 33.73 25.12 33.82 25.03 35.56 26.79 40.37 31.6"/><polygon class="cls-7" points="45.13 29.24 45.06 29.32 35.97 20.24 36.06 20.15 39.13 23.23 45.13 29.24"/><polygon class="cls-7" points="45.13 29.24 45.06 29.32 35.97 20.24 36.06 20.15 39.13 23.23 45.13 29.24"/><polyline class="cls-7" points="30.87 10.35 28.28 7.76 24.7 11.35 29.23 15.88 37.64 7.46 35.7 5.52"/><path class="cls-7" d="M59.92,19.22a2.58,2.58,0,0,1-2.41,1.64H51.05L37.64,7.46l-3.58,3.59L49.41,26.38h6.47a2.56,2.56,0,0,0,2.4-1.64h5.17V19.22Z"/><polyline class="cls-7" points="34.06 11.05 49.41 26.38 49.67 26.65"/><rect class="cls-7" x="23.1" y="28.96" width="3.56" height="5.42" transform="translate(-15.11 26.87) rotate(-45)"/><path class="cls-7" d="M24.75,29l-2.52,2.52L21.7,31,18.38,27.7l.41-.41h3.4a2,2,0,0,1,1.34.5Z"/><path class="cls-4" d="M11,30H3.33A3.34,3.34,0,0,1,0,26.62v-18A3.34,3.34,0,0,1,3.33,5.34H11ZM3.33,7.84a.83.83,0,0,0-.83.83v18a.83.83,0,0,0,.83.83H8.54V7.84Z"/><path class="cls-4" d="M70.36,27.54H62.65V2.94h7.71a3.32,3.32,0,0,1,3.32,3.32v18A3.33,3.33,0,0,1,70.36,27.54ZM65.14,25h5.22a.83.83,0,0,0,.83-.83v-18a.84.84,0,0,0-.83-.83H65.14Z"/><path class="cls-4" d="M32.66,37.82a2.09,2.09,0,0,1-1.46-.61l-8.51-8.49a.73.73,0,0,0-.5-.18H11.82a3.28,3.28,0,0,1-3.28-3.28V10a3.28,3.28,0,0,1,3.28-3.27H15a.78.78,0,0,0,.55-.22L21.1,1a3.28,3.28,0,0,1,4.64,0l4.67,4.67A1.25,1.25,0,0,1,28.64,7.4L24,2.73a.77.77,0,0,0-1.1,0L17.29,8.3a3.28,3.28,0,0,1-2.32,1H11.82A.78.78,0,0,0,11,10V25.26a.78.78,0,0,0,.78.78H22.19a3.27,3.27,0,0,1,2.14.79l.18.16,8.15,8.14.55-.55a.77.77,0,0,0,0-1.1l-3.83-3.83,1.85-1.85,5.67,5.68c.3-.33.66-.75,1-1.15l.09-.11a.77.77,0,0,0,0-1.1l-6-6,1.86-1.86,7.85,7.87c.3-.32.65-.74,1-1.14l.1-.12a.77.77,0,0,0,0-1.1l-8.53-8.53,1.85-1.85L46.83,29.18l-.07.08.16.15a.77.77,0,0,0,1.1,0l.76-.77a.77.77,0,0,0,0-1.11L33.17,11.93a1.25,1.25,0,0,1,1.77-1.77l15.61,15.6a3.28,3.28,0,0,1,0,4.64l-.76.77a3.27,3.27,0,0,1-4.64,0L45,31a3.28,3.28,0,0,1-.42.56c-2,2.52-2.63,2.64-3.29,2.53a2.07,2.07,0,0,1-1.11-.64,3.24,3.24,0,0,1-.37.46c-2,2.56-2.64,2.66-3.3,2.53a2,2,0,0,1-1.09-.64,3.56,3.56,0,0,1-.43.53l-.86.86A2.09,2.09,0,0,1,32.66,37.82Z"/><polygon class="cls-4" points="40.28 33.45 34.67 27.66 36.45 25.91 42.14 31.6 40.28 33.45"/><rect class="cls-4" x="30.27" y="28.19" width="2.62" height="3.61" transform="translate(-11.96 31.08) rotate(-44.96)"/><polygon class="cls-4" points="35.49 28.63 31.96 25.12 33.82 23.26 37.33 26.8 35.49 28.63"/><polygon class="cls-4" points="39.04 25.07 34.21 20.24 36.06 18.39 40.9 23.23 39.04 25.07"/><polygon class="cls-4" points="35.6 35.87 29.38 29.65 31.23 27.8 37.3 33.89 35.6 35.87"/><polygon class="cls-4" points="35.6 35.87 29.38 29.65 31.23 27.8 37.3 33.89 35.6 35.87"/><polygon class="cls-4" points="40.3 33.44 31.96 25.12 33.82 23.26 42.14 31.6 40.3 33.44"/><polygon class="cls-4" points="45.13 31.16 34.21 20.24 36.06 18.39 46.83 29.17 45.13 31.16"/><polygon class="cls-4" points="45.13 31.16 34.21 20.24 36.06 18.39 46.83 29.17 45.13 31.16"/><path class="cls-4" d="M55.88,27.63H49.41a1.29,1.29,0,0,1-.89-.36L34.06,12.81l-4,4a1.26,1.26,0,0,1-.88.37h0a1.26,1.26,0,0,1-.89-.37l-4.53-4.53a1.27,1.27,0,0,1,0-1.77L33.91.37A1.22,1.22,0,0,1,34.79,0H53.14a6.57,6.57,0,0,1,6.19,4.35h4.12A1.25,1.25,0,0,1,64.7,5.6V24.74A1.25,1.25,0,0,1,63.45,26H59A3.8,3.8,0,0,1,55.88,27.63Zm-6-2.5h6a1.32,1.32,0,0,0,1.24-.84,1.25,1.25,0,0,1,1.17-.79H62.2V6.85H58.38a1.25,1.25,0,0,1-1.23-1,4.07,4.07,0,0,0-4-3.33H35.31l-8.85,8.85,2.77,2.76,9.21-9.22a1.25,1.25,0,1,1,1.77,1.76l-4.39,4.4Z"/><path class="cls-4" d="M49.67,27.9a1.21,1.21,0,0,1-.88-.37L33.17,11.93a1.25,1.25,0,0,1,1.77-1.77l15.61,15.6a1.25,1.25,0,0,1,0,1.77A1.21,1.21,0,0,1,49.67,27.9Z"/><path class="cls-4" d="M25.54,36.1a1.29,1.29,0,0,1-.89-.37l-3.83-3.84a1.24,1.24,0,0,1,0-1.76l2.52-2.52a1.25,1.25,0,0,1,1.77,0l3.83,3.83a1.25,1.25,0,0,1,0,1.77l-2.52,2.52A1.25,1.25,0,0,1,25.54,36.1ZM23.47,31l2.07,2.07.75-.75-2.07-2.07Z"/><path class="cls-4" d="M22.23,32.78a1.26,1.26,0,0,1-.88-.36l-.53-.52L17.5,28.58a1.28,1.28,0,0,1-.37-.89,1.26,1.26,0,0,1,.37-.88l.41-.41a1.27,1.27,0,0,1,.88-.36h3.4a3.23,3.23,0,0,1,2.17.82l1.27,1.26a1.25,1.25,0,0,1,0,1.77l-2.52,2.52A1.25,1.25,0,0,1,22.23,32.78ZM21,28.54l1.23,1.23L23,29l-.34-.33a.69.69,0,0,0-.45-.14Z"/><path class="cls-4" d="M29.05,39.61h0a1.25,1.25,0,0,1-.88-.36l-3.84-3.84a1.27,1.27,0,0,1,0-1.77l2.52-2.52a1.29,1.29,0,0,1,.89-.36h0a1.25,1.25,0,0,1,.88.36L32.46,35a1.27,1.27,0,0,1,0,1.77l-2.52,2.52A1.29,1.29,0,0,1,29.05,39.61ZM27,34.53l2.07,2.06.76-.75-2.07-2.07Z"/></g></g></svg>