<?xml version="1.0" encoding="UTF-8"?>
<svg width="81px" height="80px" viewBox="0 0 81 80" version="1.1" xmlns="http://www.w3.org/2000/svg" xmlns:xlink="http://www.w3.org/1999/xlink">
    <!-- Generator: Sketch 53.2 (72643) - https://sketchapp.com -->
    <title>copyright (1) copy</title>
    <desc>Created with Sketch.</desc>
    <g id="Page-1" stroke="none" stroke-width="1" fill="none" fill-rule="evenodd">
        <g id="Desktop-HD-Copy-2" transform="translate(-1271.000000, -554.000000)" fill="#444444" fill-rule="nonzero">
            <g id="copyright-(1)-copy" transform="translate(1271.000000, 554.000000)">
                <path d="M52.4833016,27.8594148 C43.4931615,27.8689567 36.2078563,35.154262 36.1983143,44.144402 L36.1983143,47.4013995 C36.1943385,54.9180979 41.336673,61.4615141 48.6410624,63.2347328 C55.9462469,65.0079516 63.5154262,61.5513677 66.9592875,54.8695929 C67.2169211,54.3710241 67.1994276,53.7746502 66.9139632,53.2919847 C66.6277036,52.8085242 66.1132316,52.5071564 65.5518449,52.4936387 L57.4093512,52.2868957 C57.0451654,52.2916666 56.6897264,52.4053753 56.3899491,52.6121183 C55.2655853,53.46215 53.8931298,53.9201653 52.4833016,53.9153944 C48.8859733,53.9153944 45.9693067,50.9987277 45.9693067,47.4013995 L45.9693067,44.144402 C45.9693067,41.340649 47.7631998,38.8509861 50.423028,37.9643766 C53.0836515,37.0777671 56.0122455,37.9930025 57.6948155,40.2361641 C58.0017494,40.6456743 58.4844149,40.8874046 58.9972965,40.8874046 L66.3040712,40.8874046 C66.8328562,40.8874046 67.3282443,40.6305661 67.6335878,40.1995866 C67.9389313,39.7678117 68.0160623,39.2151717 67.8403308,38.716603 C65.5327609,32.2137405 59.3829517,27.8665712 52.4833016,27.8594148 L52.4833016,27.8594148 Z M59.7678117,37.6304071 C57.0666349,34.6095737 52.7822838,33.5694974 48.9972965,35.0151082 C45.2115139,36.4607188 42.7115139,40.0922392 42.7123092,44.144402 L42.7123092,47.4013995 C42.7115139,50.9971375 44.6867049,54.30264 47.8530534,56.0074746 C51.0194019,57.7115139 54.8664122,57.5381679 57.8673665,55.5566158 L62.5524808,55.6758905 C59.0601144,59.9292303 53.2705152,61.5298982 48.0892175,59.673187 C42.9079198,57.817271 39.4521311,52.9055345 39.4553118,47.4013995 L39.4553118,44.144402 C39.4529262,38.245865 43.4144403,33.081266 49.1118003,31.5553435 C54.8091603,30.028626 60.8214058,32.5206742 63.769084,37.6304071 L59.7678117,37.6304071 Z" id="Shape"></path>
                <path d="M58.9972965,18.9026718 L58.9972965,9.94592875 C58.9972965,9.12452295 58.3858141,8.43193384 57.5707697,8.33015267 C49.091921,7.27337791 40.8142494,4.97455471 33.0049301,1.50683847 L30.3506679,0.318066158 L30.3371501,0.318066158 C29.922869,0.132792672 29.4489504,0.132792672 29.0346691,0.318066158 L29.0211513,0.318066158 L26.3732507,1.50365781 C20.5057252,4.09987277 5.07554071,8.33015267 3.2903944,8.33015267 C1.50524809,8.33015267 0.37134229,8.33015267 0.203562341,9.94592875 C0.0917090416,11.0231128 0.147635691,18.5249682 0.37134229,32.451495 C0.336355013,50.4548346 9.46564885,67.2383906 24.5984415,76.9910941 L28.8000955,79.7105598 C29.3384224,80.0588421 30.0302164,80.0588421 30.5685433,79.7105598 L34.7686068,76.9910941 C37.3314249,75.3347646 39.7431615,73.4541985 41.9743957,71.3724556 C51.5879452,75.3498728 62.62007,73.5981234 70.5287849,66.8376273 C78.4367047,60.077131 81.8837468,49.4521311 79.4505407,39.3368322 C77.0173346,29.221533 69.114981,21.3263359 58.9972965,18.9026718 Z M55.740299,11.3804071 L55.740299,18.3047074 C54.6596692,18.1695292 53.571883,18.0971693 52.4833016,18.0884224 C44.312182,18.0892175 36.5609097,21.7072202 31.3128181,27.9699428 L31.3128181,4.31774819 L31.6793893,4.48075705 C39.3408079,7.88326962 47.4387723,10.2027672 55.740299,11.3724556 L55.740299,11.3804071 Z M33.0017494,74.2549301 L29.6843194,76.4034669 L26.3684796,74.2549301 C12.1644401,65.1025763 3.5949427,49.3495548 3.62833975,32.451495 L3.62833975,11.7374363 L3.70944651,11.6555342 L4.07283705,11.2929388 C12.2208969,10.1065523 20.1685751,7.8148855 27.6956108,4.47916662 L28.0558207,4.31615776 L28.0558207,32.7639949 C20.9836195,45.9979326 25.7713103,62.4578563 38.8382634,69.8338105 C37.0062023,71.4519719 35.0548664,72.9293893 33.0017494,74.2549301 Z M52.4833016,70.2003817 C38.9925254,70.2003817 28.0558207,59.2636767 28.0558207,45.7729008 C28.0558207,32.2821248 38.9925254,21.3454198 52.4833016,21.3454198 C65.9740776,21.3454198 76.9107825,32.2821248 76.9107825,45.7729008 C76.8956743,59.2573154 65.9677162,70.1852735 52.4833016,70.2003817 Z" id="Shape"></path>
                <path d="M11.1354962,34.5570929 L10.1065523,19.6063931 C10.0453244,18.7070612 9.26685761,18.0271947 8.3675255,18.0884224 C7.46819338,18.1496501 6.78832692,18.928117 6.84955481,19.8274492 L7.88008916,34.7773537 C8.32061069,41.2611322 10.2902353,47.548505 13.6275444,53.1257952 C13.9217557,53.6354962 14.4680344,53.947201 15.0564568,53.9400446 C15.6456743,53.9336833 16.1847963,53.6092558 16.4670801,53.0931933 C16.7493639,52.5763359 16.731075,51.94736 16.4185751,51.4479961 C13.3492366,46.3136132 11.5394402,40.5256043 11.1354962,34.5570929 L11.1354962,34.5570929 Z" id="Path"></path>
            </g>
        </g>
    </g>
</svg>