<svg xmlns="http://www.w3.org/2000/svg" viewBox="0 0 216.58 268.56"><defs><style>.cls-1{fill:#00d0dc;}.cls-2{fill:#fff;}.cls-3{fill:#38b1bf;}.cls-4{fill:#f2f8f9;}</style></defs><title>Baomatweb</title><g id="Layer_2" data-name="Layer 2"><g id="Layer_1-2" data-name="Layer 1"><path class="cls-1" d="M211.27,42.32c-28.81,0-77.51-10-102.72-35.25-33,33-103.47,35.25-103.47,35.25-2.66,152.75,64.05,202,103.09,220.75C215.82,216.61,212.41,55.59,211.27,42.32Z"/><path class="cls-2" d="M108.56,13.91c.25-2.18.44-4.26.6-6.26l-.61-.58c-33,33-103.47,35.25-103.47,35.25C2.52,189.66,64.49,240.72,103.92,261c1.45-1.1,2.9-2.23,4.34-3.41C11.36,187.59,19.4,70.25,19.4,55,83.65,51,108.56,13.91,108.56,13.91Z"/><path class="cls-3" d="M108.89,13.91c-.25-2.18-.44-4.26-.6-6.26.2-.2.41-.38.6-.58,33,33,103.48,35.25,103.48,35.25C214.93,189.66,153,240.72,113.53,261c-1.46-1.1-2.9-2.23-4.34-3.41,96.89-70,88.86-187.3,88.86-202.55C133.8,51,108.89,13.91,108.89,13.91Z"/><path d="M216.47,46.18c-.06-1.91-.14-3.33-.22-4.29l-.39-4.57h-4.59a167.16,167.16,0,0,1-23.93-1.91,187.82,187.82,0,0,1-41-10.76C133,19.38,120.85,12.31,112.09,3.54L108.55,0,105,3.54C97.39,11.17,87.34,17.23,76.49,21.9c-16.26,7-34.26,10.93-48.12,13-6.93,1-12.83,1.65-17,2-2.07.17-3.71.27-4.82.33l-1.26.07H4.92l-4.76.16L.08,42.23c0,3-.08,6-.08,8.86,0,36.84,4.1,67.61,10.9,93.36,10.2,38.62,26.55,65.94,44.1,85.3a163.36,163.36,0,0,0,51,37.83l2,1,2.09-.9c24.49-10.56,43.47-26.9,58-45.92A199.89,199.89,0,0,0,194.1,175.6c9.85-24.14,15.44-49,18.61-70.67a366.16,366.16,0,0,0,3.87-51.6C216.58,50.5,216.54,48.1,216.47,46.18ZM190.56,156.3c-6.88,20.78-16.65,41.48-30.34,59.37-13.28,17.34-30.21,32-52,41.88a155.22,155.22,0,0,1-29.2-18.71c-16.64-13.56-33.81-33.42-46.93-63.42S10,105.24,10,51.09c0-1.33,0-2.7,0-4.05A260.11,260.11,0,0,0,45.5,42a191,191,0,0,0,35-10.87c10.15-4.38,19.9-9.95,28.11-17.17a102.47,102.47,0,0,0,20.3,13.73c13.37,7,28.37,11.88,42.82,15.06a197.66,197.66,0,0,0,34.82,4.53q.08,2.52.08,6.1C206.59,72.92,204.36,114.74,190.56,156.3Z"/><path class="cls-4" d="M156.42,137.35a34.85,34.85,0,0,0-69-7l.42.06a24.65,24.65,0,0,1,48.41,6.19,29.44,29.44,0,0,1-3.18,13.78,5.06,5.06,0,0,0-.29.82A38.69,38.69,0,0,1,59.43,134.3l-.28,0a48.9,48.9,0,0,0,96,14.35h-.11a31.47,31.47,0,0,0,1.35-11.26"/><path class="cls-4" d="M115.85,86.17a48.89,48.89,0,0,0-53,30.9h-.12s-.18.59-.46,1.58c-.19.6-.41,1.19-.57,1.79l.1,0c-.91,3.66-2.11,9.54-1.72,14l.15,0A34.85,34.85,0,0,0,129,140.22l-.41-.07a24.64,24.64,0,0,1-48.25-7.3h-.15a29.14,29.14,0,0,1,1.64-9.37h.08A38.69,38.69,0,0,1,157.1,137l.29,0a48.89,48.89,0,0,0-41.54-50.82"/></g></g></svg>