<svg xmlns="http://www.w3.org/2000/svg" viewBox="0 0 256 256"><defs><style>.cls-1{fill:#ffebb7;}.cls-2{fill:#fcb82a;}.cls-3{fill:#ea2127;}.cls-4{fill:#00dcad;}.cls-5{fill:#00afdc;}.cls-6{fill:#fff;}.cls-7{fill:#d2b091;}</style></defs><title>Hosting</title><g id="Layer_2" data-name="Layer 2"><g id="Layer_1-2" data-name="Layer 1"><polygon class="cls-1" points="10 10 10 246 90.58 246 127.97 171.39 165.42 246 246 246 246 10 10 10"/><path d="M69.9,113v30H226.1V113Zm146.2,20H79.9V123H216.1Z"/><path d="M29.9,113v30h30V113Zm20,20h-10V123h10Z"/><path d="M69.9,31V61H226.1V31ZM216.1,51H79.9V41H216.1Z"/><path d="M29.9,31V61h30V31Zm20,20h-10V41h10Z"/><rect class="cls-2" x="39.9" y="123" width="10" height="10" transform="translate(172.9 83.1) rotate(90)"/><rect class="cls-3" x="39.9" y="41" width="10" height="10" transform="translate(90.9 1.1) rotate(90)"/><rect class="cls-4" x="143" y="-22.1" width="10" height="136.2" transform="translate(194 -102) rotate(90)"/><rect class="cls-5" x="143" y="59.9" width="10" height="136.2" transform="translate(276 -20) rotate(90)"/><path class="cls-6" d="M10,10V164S17.36,20.78,19.36,19.78,109.11,10,109.11,10Z"/><path class="cls-7" d="M246,250.37v-154s-7.37,143.22-9.37,144.22-77.14,6.07-77.14,6.07Z"/><path d="M245.68,0H10.32A10.32,10.32,0,0,0,0,10.32V245.68A10.32,10.32,0,0,0,10.32,256H96.75l5-10L128,193.69,154.23,246l5,10h86.43A10.32,10.32,0,0,0,256,245.68V10.32A10.32,10.32,0,0,0,245.68,0ZM90.58,246H10V174H126.66ZM246,246H165.42l-36.14-72H246Zm0-82H10V92H246Zm0-82H10V10H246Z"/><polygon class="cls-3" points="107.94 256 148.06 256 127.98 216 107.94 256"/></g></g></svg>