<svg xmlns="http://www.w3.org/2000/svg" viewBox="0 0 266.06 260.68"><defs><style>.cls-1{fill:#ffd04e;}.cls-2{fill:#00d0dc;}.cls-3{fill:#fff;}.cls-4{fill:#fcb82a;}.cls-5{fill:#ff5673;}.cls-6{fill:#ea2127;}</style></defs><title>Email</title><g id="Layer_2" data-name="Layer 2"><g id="Layer_1-2" data-name="Layer 1"><polygon class="cls-1" points="4.82 106.99 4.82 254.98 104.65 254.98 133.03 198.34 161.47 254.98 259.82 254.98 259.82 106.99 4.82 106.99"/><path class="cls-2" d="M4.82,101.9,133.06,4.67,259.82,98.79l-1,12.2-12.71,12.38L133.06,171.32,7.84,114.26S.48,110.82,4.82,101.9Z"/><path class="cls-3" d="M158.47,28.14s-17.82-13.47-30.82-5.07S17.65,104,17.65,104s-11.78.69-11.75,0,1.3-7.25,3.78-9.25,33.58-26,33.58-26L129.65,6s9-.5,9.75,0,8.5,5.75,9.5,6.75S162.54,22.55,158.47,28.14Z"/><path class="cls-3" d="M217.48,48.12a1.2,1.2,0,0,0-.94-.47h-167a1.18,1.18,0,0,0-.93.47,1.81,1.81,0,0,0-.38,1.15v80.58l83.49,37.75a3.07,3.07,0,0,0,1.31.28,3.1,3.1,0,0,0,1.31-.28l83.49-37.75V49.27A1.81,1.81,0,0,0,217.48,48.12Z"/><path d="M81.19,47.65l50.47-37.22a2.49,2.49,0,0,1,2.8,0l50.46,37.22h16.85L140.4,2.39a12.47,12.47,0,0,0-14.68,0L64.34,47.65Z"/><path d="M264.89,95.67a11.62,11.62,0,0,0-3.45-4L217.86,59.51V71.94L255.51,99.7a1.56,1.56,0,0,1,.47.51.63.63,0,0,1,.08.32,1.24,1.24,0,0,1-.4.83,1.71,1.71,0,0,1-.56.37,2.74,2.74,0,0,1-1,.17H217.86v10H254.1a12.53,12.53,0,0,0,4.76-.91,11.6,11.6,0,0,0,5.25-4.21,11.11,11.11,0,0,0,1.95-6.25A10.67,10.67,0,0,0,264.89,95.67Z"/><path d="M48.26,101.9H12a2.72,2.72,0,0,1-1-.17,1.65,1.65,0,0,1-.75-.59,1.06,1.06,0,0,1-.21-.61.71.71,0,0,1,.07-.32,1.64,1.64,0,0,1,.48-.51l-3-4,3,4L48.26,71.94V59.51L4.68,91.65h0a11.41,11.41,0,0,0-3.45,4,10.67,10.67,0,0,0-1.17,4.86,11.18,11.18,0,0,0,3.38,8A11.61,11.61,0,0,0,7.26,111a12.48,12.48,0,0,0,4.75.91H48.26Z"/><polygon class="cls-4" points="134.37 167.6 134.37 167.6 134.37 167.6 134.37 167.6"/><polygon class="cls-4" points="13.8 114.26 13.8 114.26 11.74 118.82 13.8 114.26 13.8 114.26"/><path class="cls-2" d="M38.26,111.9H15.11a3.56,3.56,0,0,0-1.26.21,2,2,0,0,0-.65.4,1.15,1.15,0,0,0-.39.78.53.53,0,0,0,.1.33,2.06,2.06,0,0,0,.89.64l24.46,11.06,10,4.53V111.9Z"/><path class="cls-2" d="M253.11,112.73a1.83,1.83,0,0,0-.84-.62,3.56,3.56,0,0,0-1.26-.21H217.86v17.95l10-4.53,24.46-11.06a2.06,2.06,0,0,0,.89-.64.6.6,0,0,0,.1-.33A1.05,1.05,0,0,0,253.11,112.73Z"/><path d="M48.26,49a1.33,1.33,0,0,1,.38-.94,1.31,1.31,0,0,1,.93-.38h167A1.3,1.3,0,0,1,217.86,49v83.76h10V49a11.3,11.3,0,0,0-11.32-11.32h-167A11.3,11.3,0,0,0,38.26,49v82.39h10Z"/><rect x="23.26" y="154.9" width="20" height="10" rx="4.92"/><rect x="58.67" y="154.9" width="18" height="10" rx="4.92"/><rect x="23.26" y="174.88" width="20" height="10" rx="4.92"/><rect x="23.26" y="190.57" width="20" height="10" rx="4.92"/><path class="cls-3" d="M4.82,111.8V255h10.7c.52-2.57.76-4.33.76-4.33V137.11c0-9,7-7.59,7-7.59A144.39,144.39,0,0,0,4.82,111.8Z"/><path class="cls-3" d="M138.18,167.64c6,4.12,15.45,10.09,18.55,8.89.92-.36,91.06-40.7,103.09-46.09V112.33C233,124.58,159.84,157.94,138.18,167.64Z"/><path d="M13.8,114.26a2.06,2.06,0,0,1-.89-.64.53.53,0,0,1-.1-.33,1.15,1.15,0,0,1,.39-.78,2,2,0,0,1,.65-.4,3.56,3.56,0,0,1,1.26-.21H48.26v-10H15.11a13.56,13.56,0,0,0-4.88.89A11.74,11.74,0,0,0,4.82,107a11,11,0,0,0-2,6.3,10.52,10.52,0,0,0,1.79,5.89,11.92,11.92,0,0,0,5.08,4.19l2.06-4.55,2.06-4.56Z"/><path d="M259.82,105.28a11.86,11.86,0,0,0-3.93-2.49,13.56,13.56,0,0,0-4.88-.89H217.86v10H251a3.56,3.56,0,0,1,1.26.21,1.83,1.83,0,0,1,.84.62,1.05,1.05,0,0,1,.2.56.6.6,0,0,1-.1.33,2.06,2.06,0,0,1-.89.64l-24.46,11.06-10,4.53L134.37,167.6h0a3.1,3.1,0,0,1-1.31.28,3.07,3.07,0,0,1-1.31-.28L48.26,129.85l-10-4.53L13.8,114.26h0l-2.06,4.56-2.06,4.55L38.26,136.3l10,4.52,79.37,35.9a13.29,13.29,0,0,0,10.86,0h0l79.37-35.9,10-4.52,28.58-12.93a11.83,11.83,0,0,0,5.07-4.19,10.53,10.53,0,0,0,1.8-5.89A11.08,11.08,0,0,0,259.82,105.28Z"/><path d="M220.52,148.63a27.9,27.9,0,1,0,27.9,27.9A27.94,27.94,0,0,0,220.52,148.63Zm0,45.8a17.9,17.9,0,1,1,17.9-17.9A17.9,17.9,0,0,1,220.52,194.43Z"/><path class="cls-5" d="M204.85,183.82c0,.5,0,1,.07,1.47a17.89,17.89,0,1,0,27.89-21.74,21,21,0,0,0-6.62-1.07A21.34,21.34,0,0,0,204.85,183.82Z"/><polygon class="cls-6" points="113 260.64 153.12 260.64 133.04 220.65 113 260.64"/><polygon class="cls-6" points="113 260.64 153.12 260.64 133.04 220.65 113 260.64"/><polygon points="133.03 198.34 159.31 250.68 159.31 250.68 164.33 250.68 170.5 250.68 133.03 176.03 95.62 250.68 106.8 250.68 133.03 198.34"/><polygon points="106.8 250.68 106.8 250.68 101.79 260.68 101.79 260.68 106.8 250.68"/><path d="M262.69,105.26a11.35,11.35,0,0,0-8-3.32H217.8v10h36.88a1.33,1.33,0,0,1,1.32,1.32V238.75L139.59,165.88c-2-1.27-5,5.1-7.27,5.1s-3.88-6.37-5.91-5.1L10,238.75V113.26a1.33,1.33,0,0,1,1.32-1.32H48.2v-10H11.32A11.32,11.32,0,0,0,0,113.26V249.37a11.3,11.3,0,0,0,11.32,11.31H90.61l5-10H14.7a2.84,2.84,0,0,1-1-.17,1.63,1.63,0,0,1-.73-.58,1.17,1.17,0,0,1-.21-.63.7.7,0,0,1,.09-.35,1.55,1.55,0,0,1,.44-.45l118.44-74.15a2.52,2.52,0,0,1,2.56,0l118.3,74.05a1.57,1.57,0,0,1,.58.55.7.7,0,0,1,.09.35,1.25,1.25,0,0,1-.39.85,1.64,1.64,0,0,1-.55.36,2.84,2.84,0,0,1-1,.17H170.5l5,10h79.16A11.3,11.3,0,0,0,266,249.37V113.26A11.3,11.3,0,0,0,262.69,105.26Z"/><polygon points="106.8 250.68 95.62 250.68 90.61 260.68 101.79 260.68 106.8 250.68"/><polygon points="164.33 250.68 164.33 260.68 175.52 260.68 170.5 250.68 164.33 250.68"/><polygon points="159.31 250.68 164.33 260.68 164.33 260.68 159.31 250.68 159.31 250.68"/><polygon points="164.33 260.68 164.33 250.68 159.31 250.68 164.33 260.68"/></g></g></svg>