<svg id="Layer_1" data-name="Layer 1" xmlns="http://www.w3.org/2000/svg" viewBox="0 0 50 49.99"><title>icon_trangchu_bott</title><style>path{fill:#d6d6d7;}</style><path d="M25,50A25,25,0,1,0,2,15.16l-.31.1.12.36A25,25,0,0,0,25,50ZM44.62,37.6l-1.29-1.29v-3a1,1,0,0,0-.08-.38L40,26.46V23.33a.82.82,0,0,0-.37-.69L37.13,21a.88.88,0,0,0-.67-.12l-3.06.77-5.14-2.21-.71-4.95,2-2h4.21l1.42,2.13a.83.83,0,0,0,.55.36l5,.83a.9.9,0,0,0,.4,0l4.61-1.54A23.26,23.26,0,0,1,44.61,37.6ZM41.18,8.21l-1.36.9-3.77-.75L33.6,7.54a.84.84,0,0,0-.47,0L30,8.3l-1.35-.45,1-2H32.5a.78.78,0,0,0,.37-.09L35.76,4.3A23.75,23.75,0,0,1,41.18,8.21ZM15.88,3.53l2,1.33A.7.7,0,0,0,18.2,5l4,.67-.4,1.18-2.1.7a.85.85,0,0,0-.45.36l-2.39,4L13.05,14.2,7.39,15a.83.83,0,0,0-.72.82v2.5a.83.83,0,0,0,.25.59l1.42,1.42v1.43L4.87,19.46,3.62,15.69A23.39,23.39,0,0,1,15.88,3.53ZM13.5,30.84l-3.76-.75L8.34,27.3v-2l3.1-3.1,1.15,2.29a.82.82,0,0,0,.75.46H18.7L21,28.76a.86.86,0,0,0,.72.4H24l-.59,2.92-3.15,3.16a.8.8,0,0,0-.25.59v2.08l-3,2.25a.82.82,0,0,0-.33.66v3l-1-.34-1.46-3.66V31.66A.84.84,0,0,0,13.5,30.84ZM2.69,18.18l.69,2.08a.88.88,0,0,0,.33.43l4.15,2.77-.94.95a.79.79,0,0,0-.25.58v2.5a.85.85,0,0,0,.09.38L8.43,31.2a.82.82,0,0,0,.58.44l3.5.7V40a.81.81,0,0,0,.06.31l1.66,4.17a.86.86,0,0,0,.51.48l2.5.83a.78.78,0,0,0,.26,0,.84.84,0,0,0,.84-.83V41.24l3-2.25a.82.82,0,0,0,.33-.66V36.17l3.09-3.09a.81.81,0,0,0,.22-.42l.84-4.17a.83.83,0,0,0-.66-1l-.16,0H22.14l-2.26-3.76a.83.83,0,0,0-.71-.4H13.85l-1.43-2.87a.83.83,0,0,0-.61-.45.79.79,0,0,0-.72.23L10,21.32V20a.79.79,0,0,0-.24-.59L8.34,18V16.55l5.12-.73a.72.72,0,0,0,.31-.11l4.16-2.5a.86.86,0,0,0,.29-.28L20.56,9l2.21-.73a.83.83,0,0,0,.52-.53l.83-2.5a.83.83,0,0,0-.52-1l-.13,0-4.82-.8-.85-.57a23.21,23.21,0,0,1,16,.6l-1.53.76H29.17a.8.8,0,0,0-.75.46L26.75,8a.84.84,0,0,0,.37,1.12l.11,0,2.5.83a.75.75,0,0,0,.47,0l3.1-.77,2.27.75a.17.17,0,0,0,.1,0l4.16.83a.83.83,0,0,0,.63-.12l1.89-1.26a23.89,23.89,0,0,1,2.51,3.34l-4.1,1.37-4.44-.74-1.46-2.2a.85.85,0,0,0-.69-.37h-5a.82.82,0,0,0-.59.25l-2.5,2.49a.85.85,0,0,0-.24.71l.84,5.83a.82.82,0,0,0,.5.65L33,23.26a.8.8,0,0,0,.53,0l3-.74,1.82,1.21v2.89a.78.78,0,0,0,.09.37l3.24,6.49v3.14a.83.83,0,0,0,.25.59L43.65,39a23.32,23.32,0,0,1-41-20.81Z"/></svg>