<svg id="Layer_1" data-name="Layer 1" xmlns="http://www.w3.org/2000/svg" viewBox="0 0 91 91"><defs><style>.cls-1{fill:#231f20;}.cls-2{fill:#c7fcff;}.cls-3{fill:#5e6e7b;}.cls-4{fill:#00dcad;}.cls-5{fill:none;}.cls-6{fill:#fcb82a;}.cls-7{fill:#00afdc;}</style></defs><title>Icon MB net_</title><path class="cls-1" d="M80.29,32.69A10.65,10.65,0,0,0,69.77,23.5c-.22,0-.44,0-.65,0A24.21,24.21,0,0,0,46.59,5.33c-.75,0-1.43,0-2.28,0a24.2,24.2,0,0,0-22.43,18.2A12.2,12.2,0,0,0,11,32.65,12.17,12.17,0,0,0,0,44.74c0,.1,0,.2,0,.3A12.11,12.11,0,0,0,7.68,56l.21.08c.22.08.45.17.65.22a12.16,12.16,0,0,0,3.59.54H25.78v3a1.52,1.52,0,0,0,1.52,1.52H63.7a1.52,1.52,0,0,0,1.52-1.52v-3H78.87A10.32,10.32,0,0,0,80,56.81h.17a7.46,7.46,0,0,0,.93-.14,12,12,0,0,0,2.49-.73c.33-.14.65-.29,1-.46l.19-.1.19-.11.49-.28A12.19,12.19,0,0,0,91,45c0-.1,0-.2,0-.3A12.15,12.15,0,0,0,80.29,32.69ZM62.18,58.39H28.82V52.32H62.18ZM88,44.93a9.14,9.14,0,0,1-4.16,7.48l-.35.2-.28.15c-.23.12-.47.25-.73.36a9.48,9.48,0,0,1-2,.57,5.81,5.81,0,0,1-.58.09h-.18a8.08,8.08,0,0,1-.85.05H65.22v-3a1.51,1.51,0,0,0-1.52-1.51H27.3a1.51,1.51,0,0,0-1.52,1.51v3H12.13a9.11,9.11,0,0,1-2.74-.42l-.46-.15-.18-.06a9.11,9.11,0,0,1-5.7-8.32,1.36,1.36,0,0,0,0-.2,9.14,9.14,0,0,1,9.22-9,1.53,1.53,0,0,0,1.51-1.31,9.1,9.1,0,0,1,9-7.79h.18a1.52,1.52,0,0,0,1.68-1.24A21.08,21.08,0,0,1,44.48,8.36c.67,0,1.28,0,2,0a21.06,21.06,0,0,1,19.92,17.1,1.51,1.51,0,0,0,.64,1,1.54,1.54,0,0,0,1.16.24,7.62,7.62,0,0,1,9.12,7.43,1.52,1.52,0,0,0,1.52,1.52,9.12,9.12,0,0,1,9.1,9,1,1,0,0,0,0,.24Zm0,0"/><path class="cls-2" d="M78.87,34.12a9.1,9.1,0,0,0-9.1-9.1,9.59,9.59,0,0,0-1.85.18A22.51,22.51,0,0,0,46.58,6.85l-1.08,0-1.12,0A22.49,22.49,0,0,0,23.11,25h-.36a10.59,10.59,0,0,0-10.5,9.1h-.12A10.61,10.61,0,0,0,1.52,44.74a.43.43,0,0,0,0,.16,10.61,10.61,0,0,0,6.66,9.71c.26.09.52.2.79.27a10.83,10.83,0,0,0,3.15.47H78.87a8.94,8.94,0,0,0,1-.06s0,0,.06,0a6.07,6.07,0,0,0,.84-.12,11.33,11.33,0,0,0,2.2-.65c.3-.13.59-.27.88-.43l.09,0,.6-.35A10.67,10.67,0,0,0,89.47,45h0s0,0,0,0v0a.43.43,0,0,0,0-.16A10.61,10.61,0,0,0,78.87,34.12Zm0,0"/><path class="cls-3" d="M6.08,46.23a.49.49,0,0,1,0-.17A10.61,10.61,0,0,1,16.68,35.45h.12a10.59,10.59,0,0,1,10.5-9.1,2.17,2.17,0,0,1,.36,0A22.49,22.49,0,0,1,48.93,8.18c.38,0,.74,0,1.12,0s.71,0,1.08,0a24.6,24.6,0,0,1,3.91.5,23.16,23.16,0,0,0-8.46-2l-1.08,0-1.12,0A22.5,22.5,0,0,0,23.11,24.84h-.36a10.59,10.59,0,0,0-10.5,9.1h-.12A10.61,10.61,0,0,0,1.52,44.55a.43.43,0,0,0,0,.16,10.6,10.6,0,0,0,6.66,9.71c.26.09.52.2.79.27a10.87,10.87,0,0,0,2.12.4,10.57,10.57,0,0,1-5-8.86Zm0,0"/><rect class="cls-4" x="27.3" y="50.8" width="36.4" height="9.1"/><rect class="cls-5" y="5.31" width="91" height="80.38"/><path class="cls-1" d="M63.7,35.64H27.3a1.51,1.51,0,0,0-1.52,1.51v9.1a1.52,1.52,0,0,0,1.52,1.52H63.7a1.52,1.52,0,0,0,1.52-1.52v-9.1a1.51,1.51,0,0,0-1.52-1.51Zm-1.52,9.1H28.82V38.67H62.18Zm0,0"/><path class="cls-1" d="M34.88,53.84h-3a1.52,1.52,0,1,0,0,3h3a1.52,1.52,0,1,0,0-3Zm0,0"/><path class="cls-1" d="M81.9,82.65H47V75.07H63.7a1.52,1.52,0,0,0,1.52-1.52v-9.1a1.51,1.51,0,0,0-1.52-1.51H27.3a1.51,1.51,0,0,0-1.52,1.51v9.1a1.52,1.52,0,0,0,1.52,1.52H44v7.58H9.1a1.52,1.52,0,0,0,0,3H81.9a1.52,1.52,0,0,0,0-3ZM28.82,66H62.18V72H28.82Zm0,0"/><rect class="cls-6" x="27.3" y="37.15" width="36.39" height="9.1"/><path class="cls-1" d="M31.85,43.22h3a1.52,1.52,0,0,0,0-3h-3a1.52,1.52,0,0,0,0,3Zm0,0"/><rect class="cls-7" x="27.3" y="64.45" width="36.4" height="9.1"/><path class="cls-1" d="M34.88,67.49h-3a1.52,1.52,0,1,0,0,3h3a1.52,1.52,0,1,0,0-3Zm0,0"/></svg>