<svg id="Layer_1" data-name="Layer 1" xmlns="http://www.w3.org/2000/svg" viewBox="0 0 91 91"><defs><style>.cls-1{fill:#ffd04e;}.cls-2{stroke:#fff;stroke-miterlimit:10;stroke-width:0.68px;}.cls-3{fill:#00d0dc;}.cls-4{fill:#fff;}.cls-5{fill:#fcb82a;}.cls-6{fill:#ea2127;}.cls-7{fill:#ff5673;}</style></defs><title>Icon MB net_</title><polygon class="cls-1" points="1.65 37.51 1.65 88.13 35.79 88.13 45.5 68.76 55.23 88.13 88.87 88.13 88.87 37.51 1.65 37.51"/><path class="cls-2" d="M27.77,17.22,45,4.49a.84.84,0,0,1,1,0L63.25,17.22H69L48,1.73A4.24,4.24,0,0,0,45.51.92,4.19,4.19,0,0,0,43,1.74L22,17.22Z"/><path class="cls-2" d="M90.6,33.64a4,4,0,0,0-1.18-1.37l-14.91-11v4.25L87.39,35a.53.53,0,0,1,.16.17.23.23,0,0,1,0,.11.45.45,0,0,1-.14.29.44.44,0,0,1-.19.12.77.77,0,0,1-.34.06H74.51v3.42h12.4a4.19,4.19,0,0,0,1.63-.31,3.88,3.88,0,0,0,1.79-1.44A3.74,3.74,0,0,0,91,35.3,3.66,3.66,0,0,0,90.6,33.64Z"/><path class="cls-2" d="M3.63,35l12.88-9.5V21.27L1.6,32.27h0A4,4,0,0,0,.42,33.64,3.66,3.66,0,0,0,0,35.3,3.83,3.83,0,0,0,1.18,38a4,4,0,0,0,1.3.85,4.19,4.19,0,0,0,1.63.31h12.4V35.77H4.11a.77.77,0,0,1-.34-.06.6.6,0,0,1-.26-.2.37.37,0,0,1-.07-.21.23.23,0,0,1,0-.11A.53.53,0,0,1,3.63,35"/><path class="cls-3" d="M3.83,35.56l41.68-33L88.87,34.71l-.33,4.17-4.35,4.24L45.51,59.51,2.68,40S2.34,38.61,3.83,35.56Z"/><path class="cls-4" d="M54.2,10.54s-6.09-4.6-10.54-1.73S6,36.48,6,36.48s-4,.24-4,0S2.46,34,3.31,33.32,14.8,24.43,14.8,24.43L44.35,3a2.75,2.75,0,0,1,3.33,0c.24.19,2.91,2,3.25,2.3S55.59,8.63,54.2,10.54Z"/><polygon class="cls-5" points="45.96 58.24 45.96 58.24 45.96 58.24 45.96 58.24"/><polygon class="cls-5" points="4.72 40 4.72 40 4.01 41.56 4.72 40 4.72 40"/><path class="cls-3" d="M13.08,39.19H5.17a1.41,1.41,0,0,0-.43.07.7.7,0,0,0-.23.14.41.41,0,0,0-.13.27.19.19,0,0,0,0,.11.7.7,0,0,0,.3.22l8.36,3.78,3.43,1.55V39.19Z"/><path class="cls-3" d="M86.57,39.48a.54.54,0,0,0-.29-.22,1.41,1.41,0,0,0-.43-.07H74.51v6.14l3.43-1.55L86.3,40a.7.7,0,0,0,.3-.22.19.19,0,0,0,0-.11A.34.34,0,0,0,86.57,39.48Z"/><path d="M16.51,17.67a.42.42,0,0,1,.13-.32.41.41,0,0,1,.32-.13h57.1a.41.41,0,0,1,.32.13.42.42,0,0,1,.13.32V46.32h3.43V17.67a3.88,3.88,0,0,0-3.88-3.87H17a3.88,3.88,0,0,0-3.88,3.87V45.85h3.43Z"/><rect class="cls-2" x="7.96" y="53.9" width="6.84" height="3.42" rx="1.71" ry="1.71"/><rect class="cls-2" x="20.07" y="53.9" width="6.16" height="3.42" rx="1.71" ry="1.71"/><rect class="cls-2" x="7.96" y="60.73" width="6.84" height="3.42" rx="1.71" ry="1.71"/><rect class="cls-2" x="7.96" y="66.1" width="6.84" height="3.42" rx="1.71" ry="1.71"/><path class="cls-4" d="M1.65,39.16v49H5.31c.17-.88.26-1.48.26-1.48V47.81C5.57,44.74,8,45.22,8,45.22A48.73,48.73,0,0,0,1.65,39.16Z"/><path class="cls-4" d="M47.26,58.26c2.05,1.41,5.29,3.45,6.35,3,.31-.12,31.14-13.92,35.26-15.77V39.34C79.69,43.53,54.67,54.94,47.26,58.26Z"/><path d="M4.72,40a.7.7,0,0,1-.3-.22.19.19,0,0,1,0-.11.41.41,0,0,1,.13-.27.7.7,0,0,1,.23-.14,1.41,1.41,0,0,1,.43-.07H16.51V35.77H5.17a4.59,4.59,0,0,0-1.67.31,4,4,0,0,0-1.85,1.43A3.77,3.77,0,0,0,1,39.67a3.62,3.62,0,0,0,.61,2,4.12,4.12,0,0,0,1.74,1.44L4,41.56,4.72,40Z"/><path d="M88.87,36.93a4,4,0,0,0-1.35-.85,4.59,4.59,0,0,0-1.67-.31H74.51v3.42H85.85a1.41,1.41,0,0,1,.43.07.54.54,0,0,1,.29.22.34.34,0,0,1,.07.19.19.19,0,0,1,0,.11.7.7,0,0,1-.3.22l-8.36,3.78-3.43,1.55L46,58.24h0a1.06,1.06,0,0,1-.9,0L16.51,45.33l-3.43-1.55L4.72,40h0L4,41.56l-.7,1.56,9.77,4.42,3.43,1.54L43.65,61.36a4.52,4.52,0,0,0,3.72,0h0L74.51,49.08l3.43-1.54,9.77-4.42a4.12,4.12,0,0,0,1.74-1.44,3.62,3.62,0,0,0,.61-2A3.8,3.8,0,0,0,88.87,36.93Z"/><path d="M75.41,54.89a6.34,6.34,0,1,0,6.34,6.34A6.35,6.35,0,0,0,75.41,54.89Zm0,10.41a4.07,4.07,0,1,1,4.07-4.07A4.07,4.07,0,0,1,75.41,65.3Z"/><polygon class="cls-6" points="38.65 90.07 52.37 90.07 45.5 76.39 38.65 90.07"/><polygon class="cls-6" points="38.65 90.07 52.37 90.07 45.5 76.39 38.65 90.07"/><polygon points="45.5 68.76 54.49 86.66 54.49 86.66 56.2 86.66 56.93 86.66 45.67 63.94 34.15 86.66 36.53 86.66 45.5 68.76"/><polygon points="36.53 86.66 36.53 86.66 34.82 90.08 34.82 90.08 36.53 86.66"/><path d="M44.44,58.49,2.12,85V38.68a.41.41,0,0,1,.13-.32.42.42,0,0,1,.32-.13l13.92-.8V35.79H3.87A3.86,3.86,0,0,0,0,39.66V86.21a3.86,3.86,0,0,0,3.87,3.87H31l1.71-3.42H5a1,1,0,0,1-.35-.06.57.57,0,0,1-.25-.2.37.37,0,0,1-.07-.21.24.24,0,0,1,0-.12.5.5,0,0,1,.15-.16L45.05,60.55a.87.87,0,0,1,.88,0L86.39,85.88a.6.6,0,0,1,.2.19.24.24,0,0,1,0,.12.48.48,0,0,1-.13.29.69.69,0,0,1-.19.12,1,1,0,0,1-.35.06H58.32L60,90.08H87.11A3.86,3.86,0,0,0,91,86.21V39.66a3.86,3.86,0,0,0-3.87-3.87H74.49v1.87l14,0a.44.44,0,0,1,.45.45V84.06L47.24,58.83"/><polygon points="36.53 86.66 32.7 86.66 30.99 90.08 34.82 90.08 36.53 86.66"/><polygon points="56.2 86.66 56.2 90.08 60.03 90.08 58.31 86.66 56.2 86.66"/><polygon points="54.49 86.66 56.2 90.08 56.2 90.08 54.49 86.66 54.49 86.66"/><polygon points="56.2 90.08 56.2 86.66 54.49 86.66 56.2 90.08"/><path class="cls-4" d="M75.94,15.94a.42.42,0,0,0-.34-.17H15.42a.42.42,0,0,0-.34.17.62.62,0,0,0-.14.41V45.4L45,59A1.27,1.27,0,0,0,46,59L76.08,45.4v-29A.62.62,0,0,0,75.94,15.94Z"/><circle class="cls-1" cx="75.41" cy="61.23" r="4.63"/><path class="cls-7" d="M71.38,63.18c0,.12,0,.24,0,.37A4.53,4.53,0,1,0,78.46,58a5.47,5.47,0,0,0-1.68-.27A5.41,5.41,0,0,0,71.38,63.18Z"/></svg>