<svg id="Layer_1" data-name="Layer 1" xmlns="http://www.w3.org/2000/svg" viewBox="0 0 91 91"><defs><style>.cls-1{fill:#ffebb7;}.cls-2{fill:#fff;}.cls-3{fill:#fcb82a;}.cls-4{fill:#00dcad;}.cls-5{fill:#00afdc;}.cls-6{fill:#c7fcff;}.cls-7{fill:#8cd6f1;}.cls-8{fill:#ea2127;}</style></defs><title>Icon MB net_</title><path d="M50.45,7.84a5.17,5.17,0,0,0-3.69-1.52H5.22A5.17,5.17,0,0,0,1.53,7.84,5.23,5.23,0,0,0,0,11.53V66.11a5.22,5.22,0,0,0,5.22,5.22H46.76A5.22,5.22,0,0,0,52,66.11V11.53A5.19,5.19,0,0,0,50.45,7.84ZM49.19,66.11a2.42,2.42,0,0,1-2.43,2.43H5.22a2.42,2.42,0,0,1-2.43-2.43V11.53A2.42,2.42,0,0,1,5.22,9.11H46.76a2.42,2.42,0,0,1,2.43,2.42V66.11Z"/><path class="cls-1" d="M33.31,70.28H46.76a3.61,3.61,0,0,0,3.83-3.36V10.71a3.61,3.61,0,0,0-3.83-3.36H5.22A3.61,3.61,0,0,0,1.4,10.71V66.92a3.61,3.61,0,0,0,3.82,3.36H18.67"/><path class="cls-2" d="M1.4,11.11V57.67c.86-1.12,1.39-3.32,1.39-7,0-20.79,1-32.65,2.42-35.58s30.84-5,30.84-5L32,7.29H5.22A3.82,3.82,0,0,0,1.4,11.11Z"/><path d="M46.39,15.94H5.59v8.38h40.8ZM43.6,21.53H8.38v-2.8H43.6Z"/><path d="M46.39,26.77H5.59v8.37h40.8ZM43.6,32.35H8.38V29.56H43.6Z"/><path d="M46.39,37.59H5.59V46h40.8ZM43.6,43.17H8.38V40.38H43.6Z"/><rect class="cls-3" x="8.38" y="18.73" width="35.22" height="2.79"/><rect class="cls-4" x="8.38" y="29.56" width="35.22" height="2.79"/><rect class="cls-5" x="8.38" y="40.38" width="35.22" height="2.79"/><path d="M46.39,48.2H5.59v8.37h40.8ZM43.6,53.78H8.38V51H43.6Z"/><path d="M89.17,65.1A13,13,0,0,0,85,60.85a18.58,18.58,0,0,0-33.67-9.52,14.26,14.26,0,0,0-3-.33,14,14,0,0,0-12.84,8.43,12.94,12.94,0,0,0,4,25.25H50.06l.73-1.46.67-1.33L58.77,67.3,66.1,81.89l1.4,2.79H78.05A12.94,12.94,0,0,0,89.17,65.1ZM85.23,78.92a10.1,10.1,0,0,1-7.18,3H69.23L58.77,61.07,48.34,81.89H39.51a10.15,10.15,0,0,1-2.6-20l.69-.18.26-.68a11.23,11.23,0,0,1,10.49-7.27,11.05,11.05,0,0,1,3.22.48l1,.3.57-.89a15.79,15.79,0,0,1,29.14,8l0,.8.7.38a10.23,10.23,0,0,1,3.76,3.66,10.14,10.14,0,0,1-1.54,12.39Z"/><path class="cls-6" d="M83.69,61.66A17.19,17.19,0,0,0,52,52.93a12.61,12.61,0,0,0-15.42,7.64,11.55,11.55,0,0,0,3,22.72H50.76l8-16,8,16H78.05a11.55,11.55,0,0,0,5.64-21.63Z"/><path class="cls-7" d="M82.88,63.36A15.84,15.84,0,0,0,72.27,48.84a17.32,17.32,0,0,1,7.41,13.91,11.8,11.8,0,0,1-.44,20.4,10.63,10.63,0,0,0,3.64-19.79Z"/><path class="cls-2" d="M31.3,74.84a11.4,11.4,0,0,1,8.48-11A12.45,12.45,0,0,1,55,56.28a17,17,0,0,1,14.34-7.9A16.77,16.77,0,0,1,76,49.73a16.14,16.14,0,0,0-23.74,4,11.61,11.61,0,0,0-3.4-.5,11.85,11.85,0,0,0-11.08,7.67,10.83,10.83,0,0,0-6.09,16.72A11.32,11.32,0,0,1,31.3,74.84Z"/><polygon class="cls-8" points="53.18 84.69 64.38 84.69 58.78 73.52 53.18 84.69"/><polygon points="51.46 81.89 50.79 83.22 51.46 81.89 51.46 81.89"/><polygon points="66.1 81.89 67.5 84.69 67.5 84.69 66.1 81.89 66.1 81.89"/></svg>