<svg id="Layer_1" data-name="Layer 1" xmlns="http://www.w3.org/2000/svg" viewBox="0 0 130 26.1">
  <defs>
    <style>.cls-1{fill:#fff;}.cls-2{fill:#fff;}</style>
  </defs>
  <title>ICON_MB_NET</title>
  <polygon class="cls-1" points="92.5 25.76 95.38 20.01 98.26 25.76 92.5 25.76"/>
  <polygon class="cls-2" points="22.73 25.7 22.62 1.35 11.96 10.73 0 1.24 0 5.61 0 7.69 0 25.86 5.46 25.86 5.46 12.08 11.92 17.28 17.59 12.37 17.59 25.7 22.73 25.7"/>
  <polygon class="cls-2" points="61.95 1.71 45.13 1.71 45.13 7.14 51.03 7.14 51.03 25.75 56.05 25.75 56.05 7.14 61.95 7.14 61.95 1.71"/>
  <polygon class="cls-2" points="95.37 12.51 102.49 25.76 107.84 25.76 95.36 1.2 82.75 25.76 88.48 25.76 95.35 12.57 95.37 12.51"/>
  <polygon class="cls-2" points="43.82 25.76 49.17 25.76 36.68 1.2 24.07 25.76 29.81 25.76 36.67 11.73 43.82 25.76"/>
  <polygon class="cls-1" points="33.82 25.76 36.7 19.31 39.59 25.76 33.82 25.76"/>
  <path class="cls-2" d="M81.29,12.94A7.13,7.13,0,0,0,76.16,1.67c-.31,0-.65,0-1,0H63.55v24H76.9a7.12,7.12,0,0,0,4.39-12.73M76.4,20.61H68.55l0-14.67L75,6h0a2.56,2.56,0,0,1,0,5.11H71.62V15.5H76.4a2.55,2.55,0,0,1,0,5.1"/>
  <path class="cls-2" d="M129.73,13.65a9.2,9.2,0,0,0-18.21-1.84l.11,0a6.51,6.51,0,0,1,12.78,1.63,7.84,7.84,0,0,1-.84,3.64.9.9,0,0,0-.08.21,10.21,10.21,0,0,1-19.36-4.46h-.07a12.9,12.9,0,0,0,25.34,3.79h0a8.57,8.57,0,0,0,.36-3"/>
  <path class="cls-1" d="M119,.15A12.9,12.9,0,0,0,105,8.3h0s-.05.15-.12.41-.11.32-.15.48h0a13.17,13.17,0,0,0-.45,3.7h0a9.19,9.19,0,0,0,18.14,1.51l-.11,0a6.5,6.5,0,0,1-12.73-1.92h0A7.89,7.89,0,0,1,110,10h0a10.22,10.22,0,0,1,19.85,3.56H130A12.89,12.89,0,0,0,119,.15"/>
</svg>