<svg width="114" height="73" viewBox="0 0 114 73" fill="none" xmlns="http://www.w3.org/2000/svg">
<path d="M113.298 72.4H97.6783L76.5284 33.4L70.4384 45.12H53.3083L76.4883 0L113.298 72.4Z" fill="#005D9F"/>
<path d="M85.6984 72.33L41.2484 72.41H36.5984H35.5984C26.103 72.2522 17.05 68.3694 10.3909 61.5987C3.7318 54.8279 0 45.7116 0 36.215C0 26.7184 3.7318 17.602 10.3909 10.8313C17.05 4.06063 26.103 0.177831 35.5984 0.0199966H64.7683L56.0483 16.9H35.5284C30.4765 17.0149 25.6703 19.1024 22.1381 22.7159C18.6058 26.3294 16.6281 31.1819 16.6281 36.235C16.6281 41.2881 18.6058 46.1406 22.1381 49.7541C25.6703 53.3676 30.4765 55.4551 35.5284 55.57H76.6183L85.6984 72.33Z" fill="#005D9F"/>
</svg>
