<svg width="164" height="48" viewBox="0 0 164 48" fill="none" xmlns="http://www.w3.org/2000/svg">
<path d="M158.165 48H5.74486C2.57784 48 0 45.4464 0 42.3204V5.6712C0 2.544 2.57784 0 5.74486 0H158.165C161.331 0 164 2.544 164 5.6712V42.3204C164 45.4464 161.331 48 158.165 48Z" fill="#A6A6A6"/>
<path d="M162.824 42.3216C162.824 44.8608 160.742 46.9176 158.166 46.9176H5.74473C3.17054 46.9176 1.08105 44.8608 1.08105 42.3216V5.67002C1.08105 3.13202 3.17054 1.06802 5.74473 1.06802H158.165C160.742 1.06802 162.823 3.13202 162.823 5.67002L162.824 42.3216Z" fill="white"/>
<path d="M35.4194 23.6132C35.3853 19.7664 38.5218 17.8949 38.6653 17.8078C36.8889 15.1784 34.1356 14.8192 33.168 14.7905C30.8556 14.5434 28.6125 16.1953 27.4345 16.1953C26.233 16.1953 24.419 14.8144 22.4639 14.855C19.9481 14.8943 17.5945 16.3732 16.3037 18.6695C13.6397 23.3518 15.6265 30.2326 18.1788 34.0174C19.4555 35.871 20.9474 37.9406 22.9001 37.8678C24.8105 37.7878 25.5241 36.6313 27.8295 36.6313C30.1138 36.6313 30.7839 37.8678 32.7754 37.8212C34.8257 37.7878 36.1165 35.9593 37.3486 34.089C38.824 31.9645 39.4165 29.8722 39.44 29.7648C39.3918 29.7481 35.4582 28.2239 35.4194 23.6132Z" fill="#282828"/>
<path d="M31.6573 12.3008C32.6848 10.9962 33.3878 9.22141 33.1927 7.42035C31.7055 7.48719 29.8457 8.4647 28.7747 9.74061C27.8271 10.8649 26.9807 12.7078 27.1993 14.4408C28.8699 14.5673 30.5851 13.585 31.6573 12.3008Z" fill="#282828"/>
<path d="M63.0666 37.6016H60.3967L58.9342 32.936H53.8508L52.4577 37.6016H49.8584L54.8948 21.7179H58.0055L63.0666 37.6016ZM58.4934 30.9786L57.1708 26.831C57.0309 26.4073 56.7687 25.4095 56.382 23.8388H56.3349C56.1809 24.5143 55.9329 25.5122 55.5919 26.831L54.2929 30.9786H58.4934Z" fill="#282828"/>
<path d="M76.0185 31.7341C76.0185 33.682 75.5001 35.2217 74.4632 36.352C73.5344 37.3581 72.3811 37.8606 71.0045 37.8606C69.5185 37.8606 68.451 37.3187 67.8009 36.235H67.7539V42.2684H65.2474V29.9187C65.2474 28.6941 65.2157 27.4373 65.1545 26.1483H67.3588L67.4987 27.9637H67.5458C68.3816 26.5959 69.6501 25.9132 71.3524 25.9132C72.6833 25.9132 73.7942 26.4467 74.683 27.5149C75.5741 28.5843 76.0185 29.9903 76.0185 31.7341ZM73.465 31.8272C73.465 30.7124 73.2182 29.7934 72.7221 29.0701C72.1801 28.3158 71.4524 27.9386 70.5401 27.9386C69.9217 27.9386 69.3598 28.1487 68.8578 28.5629C68.3546 28.9806 68.0254 29.526 67.8714 30.2016C67.7938 30.5167 67.755 30.7745 67.755 30.9774V32.8871C67.755 33.7202 68.0066 34.4232 68.5098 34.9973C69.0129 35.5714 69.6666 35.8578 70.4707 35.8578C71.4148 35.8578 72.1495 35.4878 72.675 34.7502C73.2017 34.0114 73.465 33.0375 73.465 31.8272Z" fill="#282828"/>
<path d="M88.9939 31.7341C88.9939 33.682 88.4754 35.2217 87.4374 36.352C86.5098 37.3581 85.3565 37.8606 83.9798 37.8606C82.4939 37.8606 81.4264 37.3187 80.7774 36.235H80.7304V42.2684H78.224V29.9187C78.224 28.6941 78.1922 27.4373 78.1311 26.1483H80.3354L80.4753 27.9637H80.5223C81.357 26.5959 82.6255 25.9132 84.329 25.9132C85.6586 25.9132 86.7696 26.4467 87.6607 27.5149C88.5483 28.5843 88.9939 29.9903 88.9939 31.7341ZM86.4404 31.8272C86.4404 30.7124 86.1924 29.7934 85.6963 29.0701C85.1543 28.3158 84.4289 27.9386 83.5155 27.9386C82.8959 27.9386 82.3351 28.1487 81.832 28.5629C81.3288 28.9806 81.0008 29.526 80.8468 30.2016C80.7704 30.5167 80.7304 30.7745 80.7304 30.9774V32.8871C80.7304 33.7202 80.982 34.4232 81.4828 34.9973C81.986 35.5702 82.6396 35.8578 83.4461 35.8578C84.3901 35.8578 85.1249 35.4878 85.6504 34.7502C86.1771 34.0114 86.4404 33.0375 86.4404 31.8272Z" fill="#282828"/>
<path d="M103.501 33.1472C103.501 34.4983 103.039 35.5976 102.112 36.4462C101.092 37.3736 99.6733 37.8367 97.8499 37.8367C96.1664 37.8367 94.8168 37.5073 93.7952 36.8472L94.3759 34.7263C95.4763 35.4019 96.6837 35.7408 97.9992 35.7408C98.9432 35.7408 99.678 35.5236 100.206 35.0915C100.731 34.6595 100.994 34.0794 100.994 33.3561C100.994 32.7116 100.777 32.1685 100.343 31.7281C99.912 31.2877 99.1913 30.8783 98.185 30.5C95.4457 29.4628 94.0773 27.9434 94.0773 25.9454C94.0773 24.6396 94.557 23.569 95.5175 22.7359C96.4744 21.9016 97.7512 21.4851 99.3477 21.4851C100.771 21.4851 101.954 21.7369 102.898 22.2394L102.271 24.3138C101.39 23.8268 100.393 23.5833 99.2771 23.5833C98.3954 23.5833 97.7065 23.8041 97.2127 24.2434C96.7954 24.636 96.5861 25.1147 96.5861 25.6816C96.5861 26.3094 96.8248 26.8286 97.3044 27.2368C97.7218 27.6139 98.48 28.0221 99.5804 28.4626C100.927 29.0128 101.915 29.6561 102.551 30.3937C103.185 31.1289 103.501 32.0492 103.501 33.1472Z" fill="#282828"/>
<path d="M111.788 28.058H109.025V33.6187C109.025 35.0331 109.512 35.7397 110.488 35.7397C110.936 35.7397 111.307 35.7003 111.601 35.6215L111.67 37.5538C111.177 37.7412 110.526 37.8355 109.721 37.8355C108.731 37.8355 107.958 37.5288 107.399 36.9165C106.843 36.303 106.563 35.2742 106.563 33.8288V28.0556H104.917V26.1459H106.563V24.0488L109.025 23.2945V26.1459H111.788V28.058Z" fill="#282828"/>
<path d="M124.253 31.7806C124.253 33.5411 123.757 34.9865 122.767 36.1168C121.729 37.2805 120.351 37.8606 118.634 37.8606C116.978 37.8606 115.66 37.3032 114.678 36.1884C113.695 35.0736 113.203 33.6664 113.203 31.9704C113.203 30.1956 113.709 28.7419 114.723 27.6116C115.736 26.4801 117.102 25.9143 118.819 25.9143C120.475 25.9143 121.807 26.4717 122.812 27.5877C123.773 28.6702 124.253 30.0679 124.253 31.7806ZM121.653 31.863C121.653 30.8067 121.43 29.9008 120.98 29.1453C120.455 28.231 119.703 27.7751 118.73 27.7751C117.722 27.7751 116.957 28.2322 116.432 29.1453C115.981 29.902 115.759 30.8222 115.759 31.9107C115.759 32.967 115.981 33.8729 116.432 34.6272C116.974 35.5415 117.731 35.9974 118.708 35.9974C119.665 35.9974 120.416 35.532 120.958 34.6034C121.42 33.8335 121.653 32.9181 121.653 31.863Z" fill="#282828"/>
<path d="M132.4 28.3862C132.152 28.3397 131.888 28.3158 131.61 28.3158C130.729 28.3158 130.047 28.6536 129.567 29.3303C129.15 29.9271 128.941 30.6814 128.941 31.5921V37.6016H126.435L126.459 29.7552C126.459 28.4351 126.427 27.2332 126.365 26.1495H128.548L128.64 28.3409H128.709C128.973 27.5877 129.391 26.9814 129.962 26.5267C130.521 26.1173 131.124 25.9132 131.774 25.9132C132.005 25.9132 132.215 25.9299 132.4 25.9597V28.3862Z" fill="#282828"/>
<path d="M143.61 31.333C143.61 31.789 143.58 32.1733 143.518 32.4872H135.999C136.028 33.6187 136.391 34.484 137.09 35.0808C137.723 35.6143 138.543 35.8817 139.549 35.8817C140.662 35.8817 141.678 35.7014 142.592 35.3398L142.984 37.1062C141.917 37.5789 140.657 37.814 139.202 37.814C137.453 37.814 136.08 37.2912 135.081 36.2469C134.084 35.2025 133.584 33.8001 133.584 32.0408C133.584 30.3138 134.048 28.8755 134.978 27.7285C135.952 26.504 137.267 25.8917 138.923 25.8917C140.548 25.8917 141.779 26.504 142.615 27.7285C143.277 28.7013 143.61 29.9044 143.61 31.333ZM141.22 30.673C141.236 29.9187 141.073 29.267 140.733 28.7168C140.299 28.009 139.633 27.6557 138.736 27.6557C137.916 27.6557 137.25 28.0007 136.741 28.6929C136.323 29.2431 136.075 29.9032 135.999 30.6718H141.22V30.673Z" fill="#282828"/>
<path d="M57.6643 11.9463C57.6643 13.3511 57.2493 14.4086 56.4204 15.1188C55.6528 15.774 54.5618 16.1022 53.1487 16.1022C52.448 16.1022 51.8484 16.0712 51.3464 16.0091V8.33343C52.0013 8.22601 52.7066 8.17111 53.4684 8.17111C54.8145 8.17111 55.8291 8.46831 56.5133 9.06269C57.2798 9.73466 57.6643 10.6955 57.6643 11.9463ZM56.3652 11.9809C56.3652 11.0702 56.1277 10.372 55.6528 9.88505C55.1778 9.39927 54.4842 9.15579 53.5707 9.15579C53.1828 9.15579 52.8524 9.18205 52.5785 9.23695V15.0722C52.7301 15.0961 53.0076 15.1068 53.4108 15.1068C54.3537 15.1068 55.0814 14.8407 55.594 14.3083C56.1066 13.776 56.3652 13.0002 56.3652 11.9809Z" fill="#282828"/>
<path d="M64.5524 13.1733C64.5524 14.0386 64.309 14.7476 63.8223 15.3038C63.3121 15.8755 62.6361 16.1607 61.792 16.1607C60.9785 16.1607 60.3307 15.8874 59.8475 15.3384C59.3655 14.7905 59.1245 14.0995 59.1245 13.2664C59.1245 12.3951 59.3726 11.6801 59.871 11.1251C60.3695 10.5701 61.0396 10.2921 61.8837 10.2921C62.6972 10.2921 63.3509 10.5654 63.8458 11.1132C64.3161 11.6455 64.5524 12.333 64.5524 13.1733ZM63.2745 13.2139C63.2745 12.6947 63.164 12.2495 62.9441 11.8783C62.6855 11.4295 62.3175 11.2051 61.839 11.2051C61.3441 11.2051 60.9679 11.4295 60.7093 11.8783C60.4882 12.2495 60.3789 12.7018 60.3789 13.2365C60.3789 13.7557 60.4894 14.2009 60.7093 14.5721C60.9761 15.0209 61.3476 15.2453 61.8273 15.2453C62.2975 15.2453 62.6667 15.0173 62.9324 14.5602C63.1604 14.1818 63.2745 13.7331 63.2745 13.2139Z" fill="#282828"/>
<path d="M73.7883 10.4066L72.0543 16.033H70.9257L70.2074 13.5898C70.0251 12.9799 69.877 12.3736 69.7618 11.772H69.7395C69.6325 12.3903 69.4844 12.9954 69.2939 13.5898L68.5309 16.033H67.3894L65.7588 10.4066H67.0249L67.6515 13.0813C67.8032 13.7139 67.9278 14.3167 68.0278 14.8872H68.0501C68.1418 14.4169 68.2934 13.8177 68.5074 13.0933L69.2939 10.4078H70.2979L71.0515 13.036C71.2337 13.6769 71.3818 14.294 71.4958 14.8884H71.5299C71.6134 14.3095 71.7392 13.6924 71.9061 13.036L72.5786 10.4078H73.7883V10.4066Z" fill="#282828"/>
<path d="M80.1753 16.033H78.9433V12.8104C78.9433 11.8174 78.5718 11.3209 77.8264 11.3209C77.4608 11.3209 77.1657 11.4569 76.9365 11.7303C76.7096 12.0036 76.5944 12.3258 76.5944 12.6946V16.0318H75.3623V12.0143C75.3623 11.5202 75.347 10.9843 75.3176 10.4042H76.4004L76.458 11.2839H76.4921C76.6355 11.0105 76.8495 10.785 77.1304 10.6047C77.4643 10.3947 77.8382 10.2885 78.2473 10.2885C78.7646 10.2885 79.1948 10.4579 79.5369 10.7981C79.9625 11.2146 80.1753 11.8365 80.1753 12.6624V16.033Z" fill="#282828"/>
<path d="M83.5729 16.033H82.342V7.82495H83.5729V16.033Z" fill="#282828"/>
<path d="M90.8263 13.1733C90.8263 14.0386 90.583 14.7476 90.0962 15.3038C89.586 15.8755 88.9089 16.1607 88.0659 16.1607C87.2512 16.1607 86.6035 15.8874 86.1214 15.3384C85.6394 14.7905 85.3984 14.0995 85.3984 13.2664C85.3984 12.3951 85.6465 11.6801 86.145 11.1251C86.6434 10.5701 87.3135 10.2921 88.1565 10.2921C88.9712 10.2921 89.6236 10.5654 90.1198 11.1132C90.59 11.6455 90.8263 12.333 90.8263 13.1733ZM89.5472 13.2139C89.5472 12.6947 89.4367 12.2495 89.2169 11.8783C88.9594 11.4295 88.5903 11.2051 88.113 11.2051C87.6168 11.2051 87.2406 11.4295 86.9832 11.8783C86.7622 12.2495 86.6528 12.7018 86.6528 13.2365C86.6528 13.7557 86.7633 14.2009 86.9832 14.5721C87.2501 15.0209 87.6216 15.2453 88.1012 15.2453C88.5715 15.2453 88.9394 15.0173 89.2051 14.5602C89.4344 14.1818 89.5472 13.7331 89.5472 13.2139Z" fill="#282828"/>
<path d="M96.7892 16.033H95.6829L95.5912 15.3849H95.5571C95.1786 15.9017 94.639 16.1607 93.9383 16.1607C93.4151 16.1607 92.9919 15.9901 92.6733 15.6511C92.3841 15.3431 92.2395 14.96 92.2395 14.5053C92.2395 13.8178 92.5217 13.2938 93.0895 12.931C93.6561 12.5681 94.4532 12.3903 95.4795 12.3987V12.2936C95.4795 11.5524 95.0963 11.1824 94.3286 11.1824C93.7819 11.1824 93.2999 11.3221 92.8838 11.599L92.6333 10.7778C93.1483 10.4544 93.7843 10.2921 94.5343 10.2921C95.9827 10.2921 96.7092 11.0679 96.7092 12.6195V14.6915C96.7092 15.2536 96.7363 15.7012 96.7892 16.033ZM95.5101 14.0995V13.2318C94.1511 13.2079 93.4716 13.5862 93.4716 14.3656C93.4716 14.6592 93.5492 14.8789 93.7079 15.0257C93.8666 15.1725 94.0688 15.2453 94.3098 15.2453C94.5802 15.2453 94.8329 15.1581 95.0634 14.9851C95.295 14.8108 95.4372 14.59 95.4901 14.3191C95.503 14.2582 95.5101 14.1842 95.5101 14.0995Z" fill="#282828"/>
<path d="M103.79 16.033H102.697L102.639 15.1295H102.605C102.256 15.8169 101.661 16.1607 100.825 16.1607C100.157 16.1607 99.6013 15.8945 99.1605 15.3622C98.7196 14.8299 98.4998 14.1388 98.4998 13.2902C98.4998 12.3795 98.7384 11.6419 99.2181 11.0786C99.6824 10.5534 100.251 10.2908 100.929 10.2908C101.673 10.2908 102.194 10.545 102.49 11.0547H102.513V7.82495H103.747V14.5172C103.747 15.065 103.761 15.5699 103.79 16.033ZM102.513 13.6602V12.7221C102.513 12.5598 102.502 12.4285 102.479 12.3282C102.41 12.0274 102.261 11.7744 102.034 11.5703C101.804 11.3662 101.528 11.2636 101.21 11.2636C100.75 11.2636 100.39 11.4486 100.126 11.8198C99.8635 12.191 99.7306 12.6648 99.7306 13.2437C99.7306 13.7999 99.8564 14.251 100.109 14.5983C100.376 14.9683 100.736 15.1533 101.186 15.1533C101.59 15.1533 101.914 14.9994 102.159 14.6902C102.397 14.405 102.513 14.0612 102.513 13.6602Z" fill="#282828"/>
<path d="M114.327 13.1733C114.327 14.0386 114.084 14.7476 113.597 15.3038C113.087 15.8755 112.412 16.1607 111.567 16.1607C110.755 16.1607 110.107 15.8874 109.622 15.3384C109.14 14.7905 108.899 14.0995 108.899 13.2664C108.899 12.3951 109.147 11.6801 109.646 11.1251C110.144 10.5701 110.815 10.2921 111.66 10.2921C112.472 10.2921 113.127 10.5654 113.621 11.1132C114.091 11.6455 114.327 12.333 114.327 13.1733ZM113.051 13.2139C113.051 12.6947 112.94 12.2495 112.72 11.8783C112.46 11.4295 112.094 11.2051 111.614 11.2051C111.12 11.2051 110.744 11.4295 110.484 11.8783C110.263 12.2495 110.154 12.7018 110.154 13.2365C110.154 13.7557 110.264 14.2009 110.484 14.5721C110.751 15.0209 111.123 15.2453 111.602 15.2453C112.072 15.2453 112.443 15.0173 112.708 14.5602C112.935 14.1818 113.051 13.7331 113.051 13.2139Z" fill="#282828"/>
<path d="M120.952 16.033H119.721V12.8104C119.721 11.8174 119.349 11.3209 118.603 11.3209C118.237 11.3209 117.942 11.4569 117.714 11.7303C117.486 12.0036 117.372 12.3258 117.372 12.6946V16.0318H116.139V12.0143C116.139 11.5202 116.125 10.9843 116.095 10.4042H117.177L117.234 11.2839H117.268C117.413 11.0105 117.627 10.785 117.907 10.6047C118.242 10.3947 118.615 10.2885 119.025 10.2885C119.541 10.2885 119.971 10.4579 120.313 10.7981C120.74 11.2146 120.952 11.8365 120.952 12.6624V16.033Z" fill="#282828"/>
<path d="M129.243 11.3435H127.887V14.0768C127.887 14.7714 128.128 15.1187 128.605 15.1187C128.826 15.1187 129.009 15.0996 129.154 15.0602L129.186 16.0091C128.942 16.1022 128.623 16.1488 128.229 16.1488C127.742 16.1488 127.364 15.9984 127.09 15.6976C126.815 15.3968 126.678 14.8908 126.678 14.1806V11.3435H125.868V10.4066H126.678V9.37537L127.886 9.00537V10.4054H129.242V11.3435H129.243Z" fill="#282828"/>
<path d="M135.766 16.033H134.532V12.8343C134.532 11.8257 134.161 11.3209 133.417 11.3209C132.845 11.3209 132.455 11.6133 132.241 12.1981C132.205 12.321 132.184 12.4714 132.184 12.6481V16.0318H130.953V7.82495H132.184V11.2158H132.207C132.595 10.5988 133.151 10.2908 133.872 10.2908C134.382 10.2908 134.804 10.4603 135.139 10.8005C135.556 11.2242 135.766 11.8544 135.766 12.6875V16.033Z" fill="#282828"/>
<path d="M142.494 12.9536C142.494 13.178 142.478 13.3666 142.449 13.5206H138.754C138.77 14.0768 138.946 14.5005 139.289 14.7941C139.601 15.0567 140.004 15.188 140.498 15.188C141.045 15.188 141.543 15.0996 141.992 14.9218L142.185 15.7907C141.66 16.0222 141.041 16.138 140.325 16.138C139.467 16.138 138.791 15.8814 138.302 15.3682C137.811 14.855 137.567 14.1663 137.567 13.3022C137.567 12.4535 137.794 11.747 138.252 11.1836C138.729 10.5821 139.374 10.2813 140.189 10.2813C140.986 10.2813 141.592 10.5821 142.001 11.1836C142.331 11.661 142.494 12.2518 142.494 12.9536ZM141.319 12.6302C141.328 12.259 141.247 11.9391 141.08 11.6694C140.866 11.3221 140.541 11.1478 140.1 11.1478C139.698 11.1478 139.37 11.3173 139.119 11.6574C138.915 11.9284 138.794 12.2518 138.754 12.6302H141.319Z" fill="#282828"/>
</svg>
