<svg width="164" height="48" viewBox="0 0 164 48" fill="none" xmlns="http://www.w3.org/2000/svg">
<path fill-rule="evenodd" clip-rule="evenodd" d="M157.924 48H6.07631C2.7274 48 0 45.2948 0 42V6C0 2.69327 2.7274 0 6.07631 0H157.924C161.27 0 164 2.69327 164 6V42C164 45.2948 161.27 48 157.924 48Z" fill="white"/>
<path fill-rule="evenodd" clip-rule="evenodd" d="M157.924 0.960598C160.733 0.960598 163.032 3.22594 163.032 6V42C163.032 44.7741 160.748 47.0394 157.924 47.0394H6.07631C3.26745 47.0394 0.968468 44.7741 0.968468 42V6C0.968468 3.22594 3.25236 0.960598 6.07631 0.960598H157.924ZM157.924 0H6.07631C2.7274 0 0 2.70524 0 6V42C0 45.3067 2.7274 48 6.07631 48H157.924C161.27 48 164 45.3067 164 42V6C164 2.70524 161.27 0 157.924 0Z" fill="#A6A6A6"/>
<path d="M83.6089 15.7929C82.549 15.7929 81.6556 15.4149 80.949 14.6708C80.2483 13.9475 79.857 12.9504 79.8745 11.9325C79.8745 10.8461 80.2366 9.92638 80.949 9.19716C81.6526 8.45305 82.5461 8.07504 83.6059 8.07504C84.6541 8.07504 85.5475 8.45305 86.2658 9.19716C86.9782 9.95019 87.3402 10.8699 87.3402 11.9325C87.3286 13.0219 86.9665 13.9416 86.2658 14.6678C85.5621 15.4179 84.6687 15.7929 83.6089 15.7929ZM52.073 15.7929C51.0365 15.7929 50.1373 15.4209 49.4015 14.6857C48.6716 13.9535 48.3008 13.0278 48.3008 11.9355C48.3008 10.8431 48.6716 9.91745 49.4015 9.18525C50.1227 8.45007 51.022 8.07802 52.073 8.07802C52.5869 8.07802 53.0862 8.18219 53.565 8.39352C54.0351 8.59889 54.4176 8.87868 54.7008 9.22097L54.7709 9.30729L53.9796 10.099L53.8979 10.0008C53.4512 9.45908 52.8526 9.19418 52.0614 9.19418C51.3548 9.19418 50.7387 9.45015 50.2307 9.95615C49.7198 10.4651 49.4599 11.1318 49.4599 11.9384C49.4599 12.7451 49.7198 13.4118 50.2307 13.9208C50.7387 14.4267 51.3548 14.6827 52.0614 14.6827C52.8147 14.6827 53.4482 14.4267 53.9417 13.9208C54.2336 13.6231 54.4147 13.2064 54.4789 12.6796H51.9417V11.5664H55.5679L55.5825 11.6676C55.6088 11.8551 55.6351 12.0486 55.6351 12.2272C55.6351 13.254 55.3314 14.0845 54.73 14.6976C54.0468 15.4238 53.1533 15.7929 52.073 15.7929ZM94.003 15.6352H92.8848L89.46 10.0484L89.4892 11.0544V15.6322H88.3709V8.23577H89.6468L89.6819 8.29232L92.9023 13.5547L92.8731 12.5516V8.23577H94.003V15.6352ZM75.2059 15.6352H74.0731V9.34896H72.1081V8.23577H77.168V9.34896H75.203V15.6352H75.2059ZM71.1855 15.6352H70.0555V8.23577H71.1855V15.6352ZM64.8351 15.6352H63.7052V9.34896H61.7402V8.23577H66.8001V9.34896H64.8351V15.6352ZM61.0249 15.6233H56.692V8.23577H61.0249V9.34896H57.8249V11.3789H60.7125V12.4802H57.8249V14.5101H61.0249V15.6233ZM81.7782 13.9059C82.2833 14.4208 82.8965 14.6797 83.6089 14.6797C84.3417 14.6797 84.9402 14.4267 85.4395 13.9059C85.9359 13.3999 86.187 12.7361 86.187 11.9355C86.187 11.1348 85.9359 10.4681 85.4424 9.96508C84.9373 9.45015 84.3213 9.1912 83.6118 9.1912C82.8789 9.1912 82.2804 9.4442 81.784 9.96508C81.2877 10.4711 81.0366 11.1348 81.0366 11.9355C81.0366 12.7361 81.2848 13.4029 81.7782 13.9059Z" fill="#282828"/>
<path fill-rule="evenodd" clip-rule="evenodd" d="M79.7692 25.9664C77.01 25.9664 74.7735 28.1005 74.7735 31.0442C74.7735 33.9611 77.0246 36.1219 79.7692 36.1219C82.5283 36.1219 84.7648 33.973 84.7648 31.0442C84.7648 28.1005 82.5283 25.9664 79.7692 25.9664ZM79.7692 34.1099C78.2597 34.1099 76.9604 32.836 76.9604 31.0322C76.9604 29.2017 78.2626 27.9546 79.7692 27.9546C81.2787 27.9546 82.5779 29.2017 82.5779 31.0322C82.5808 32.8479 81.2787 34.1099 79.7692 34.1099ZM68.8699 25.9664C66.1108 25.9664 63.8743 28.1005 63.8743 31.0442C63.8743 33.9611 66.1254 36.1219 68.8699 36.1219C71.629 36.1219 73.8655 33.973 73.8655 31.0442C73.8655 28.1005 71.6261 25.9664 68.8699 25.9664ZM68.8699 34.1099C67.3604 34.1099 66.0611 32.836 66.0611 31.0322C66.0611 29.2017 67.3633 27.9546 68.8699 27.9546C70.3794 27.9546 71.6786 29.2017 71.6786 31.0322C71.6786 32.8479 70.3794 34.1099 68.8699 34.1099ZM55.9005 27.5171V29.6661H60.9604C60.8056 30.8715 60.4144 31.7615 59.8159 32.3716C59.0742 33.1277 57.9297 33.9492 55.9122 33.9492C52.8027 33.9492 50.3706 31.3894 50.3706 28.2195C50.3706 25.0496 52.8027 22.4899 55.9122 22.4899C57.591 22.4899 58.8144 23.1655 59.7224 24.0287L61.2173 22.5048C59.956 21.2725 58.2772 20.329 55.9239 20.329C51.6582 20.329 48.0786 23.871 48.0786 28.2076C48.0786 32.5562 51.6553 36.0862 55.9239 36.0862C58.2275 36.0862 59.956 35.3183 61.3224 33.8718C62.7151 32.452 63.156 30.4489 63.156 28.8327C63.156 28.3297 63.1181 27.8772 63.0392 27.4933H55.8976C55.9005 27.4903 55.9005 27.5171 55.9005 27.5171ZM108.949 29.1898C108.531 28.0499 107.27 25.9545 104.683 25.9545C102.12 25.9545 99.9882 28.0112 99.9882 31.0322C99.9882 33.8837 102.096 36.11 104.931 36.11C107.209 36.11 108.534 34.6903 109.08 33.8569L107.39 32.702C106.829 33.5503 106.049 34.1069 104.943 34.1069C103.825 34.1069 103.042 33.589 102.522 32.5681L109.182 29.7554C109.182 29.7583 108.949 29.1898 108.949 29.1898ZM102.158 30.8864C102.105 28.9249 103.652 27.9278 104.759 27.9278C105.632 27.9278 106.359 28.3654 106.607 29.0023L102.158 30.8864ZM96.7473 35.8064H98.9341V20.8886H96.7473V35.8064ZM93.156 27.0944H93.0772C92.5838 26.4962 91.6465 25.9545 90.4495 25.9545C87.9648 25.9545 85.6757 28.1838 85.6757 31.0471C85.6757 33.8986 87.9531 36.1011 90.4495 36.1011C91.6319 36.1011 92.5838 35.5564 93.0772 34.9463H93.156V35.6755C93.156 37.6131 92.14 38.6579 90.502 38.6579C89.1619 38.6579 88.3298 37.6756 87.9911 36.8541L86.0903 37.6637C86.6363 39.0031 88.0933 40.661 90.4991 40.661C93.0626 40.661 95.2349 39.1222 95.2349 35.3689V26.2581H93.1677V27.0944C93.1706 27.0944 93.156 27.0944 93.156 27.0944ZM90.6451 34.1099C89.1356 34.1099 87.8743 32.8241 87.8743 31.0471C87.8743 29.2553 89.1356 27.9576 90.6451 27.9576C92.14 27.9576 93.2991 29.2702 93.2991 31.0471C93.3137 32.8241 92.1429 34.1099 90.6451 34.1099ZM119.188 20.8886H113.959V35.8064H116.146V30.1572H119.191C121.612 30.1572 123.991 28.3683 123.991 25.5288C123.991 22.6893 121.62 20.8886 119.188 20.8886ZM119.252 28.0737H116.143V22.9542H119.252C120.89 22.9542 121.816 24.3323 121.816 25.514C121.816 26.6837 120.879 28.0737 119.252 28.0737ZM132.756 25.9396C131.168 25.9396 129.53 26.6569 128.852 28.2195L130.791 29.041C131.209 28.2195 131.974 27.9397 132.782 27.9397C133.915 27.9397 135.06 28.6303 135.086 29.8625V30.0203C134.695 29.7941 133.836 29.4488 132.809 29.4488C130.715 29.4488 128.593 30.6155 128.593 32.8032C128.593 34.8064 130.309 36.0922 132.222 36.0922C133.69 36.0922 134.499 35.4165 135.004 34.6337H135.083V35.7886H137.191V30.0738C137.191 27.4129 135.252 25.9396 132.756 25.9396ZM132.482 34.1099C131.766 34.1099 130.765 33.7527 130.765 32.836C130.765 31.6811 132.014 31.2436 133.08 31.2436C134.044 31.2436 134.499 31.4549 135.071 31.7466C134.914 33.086 133.804 34.098 132.482 34.1099ZM144.882 26.2581L142.371 32.7288H142.292L139.69 26.2581H137.337L141.241 35.3034L139.016 40.3306H141.293L147.299 26.2581H144.882ZM125.197 35.8064H127.384V20.8886H125.197V35.8064Z" fill="#282828"/>
<path fill-rule="evenodd" clip-rule="evenodd" d="M12.2159 8.99183C11.8773 9.36389 11.6816 9.93238 11.6816 10.6765V37.0685C11.6816 37.8126 11.8773 38.3811 12.2276 38.7383L12.3181 38.8186L26.8233 24.0317V23.7014L12.3065 8.91147L12.2159 8.99183Z" fill="url(#paint0_linear_168_155)"/>
<path fill-rule="evenodd" clip-rule="evenodd" d="M31.6495 28.9755L26.8115 24.0436V23.6983L31.6495 18.7664L31.7546 18.8318L37.4772 22.1476C39.1152 23.0881 39.1152 24.6418 37.4772 25.5943L31.7546 28.91L31.6495 28.9755Z" fill="url(#paint1_linear_168_155)"/>
<path fill-rule="evenodd" clip-rule="evenodd" d="M31.7548 28.91L26.8117 23.8709L12.2161 38.7501C12.7504 39.3335 13.6467 39.399 14.6482 38.8305L31.7548 28.91Z" fill="url(#paint2_linear_168_155)"/>
<path fill-rule="evenodd" clip-rule="evenodd" d="M31.7548 18.8318L14.6482 8.92628C13.6467 8.3429 12.7475 8.42326 12.2161 9.00664L26.8117 23.8709L31.7548 18.8318Z" fill="url(#paint3_linear_168_155)"/>
<path opacity="0.2" fill-rule="evenodd" clip-rule="evenodd" d="M31.6495 28.8029L14.6597 38.643C13.7108 39.1996 12.864 39.1609 12.3181 38.6549L12.2275 38.7471L12.3181 38.8275C12.864 39.3305 13.7108 39.3722 14.6597 38.8156L31.7662 28.91L31.6495 28.8029Z" fill="black"/>
<path opacity="0.12" fill-rule="evenodd" clip-rule="evenodd" d="M37.4774 25.4217L31.635 28.8029L31.7401 28.91L37.4628 25.5943C38.2832 25.1181 38.6861 24.493 38.6861 23.8709C38.6365 24.4424 38.219 24.9841 37.4774 25.4217Z" fill="black"/>
<path opacity="0.25" fill-rule="evenodd" clip-rule="evenodd" d="M14.6481 9.09898L37.4773 22.3203C38.2189 22.7459 38.6364 23.3025 38.7007 23.871C38.7007 23.2489 38.2977 22.6239 37.4773 22.1476L14.6481 8.92635C13.0101 7.97092 11.6816 8.7686 11.6816 10.6765V10.8491C11.6816 8.93826 13.0101 8.15546 14.6481 9.09898Z" fill="white"/>
<defs>
<linearGradient id="paint0_linear_168_155" x1="25.5222" y1="10.3917" x2="2.22918" y2="16.4799" gradientUnits="userSpaceOnUse">
<stop stop-color="#00A0FF"/>
<stop offset="0.00657" stop-color="#00A1FF"/>
<stop offset="0.2601" stop-color="#00BEFF"/>
<stop offset="0.5122" stop-color="#00D2FF"/>
<stop offset="0.7604" stop-color="#00DFFF"/>
<stop offset="1" stop-color="#00E3FF"/>
</linearGradient>
<linearGradient id="paint1_linear_168_155" x1="39.6133" y1="23.871" x2="11.2835" y2="23.871" gradientUnits="userSpaceOnUse">
<stop stop-color="#FFE000"/>
<stop offset="0.4087" stop-color="#FFBD00"/>
<stop offset="0.7754" stop-color="#FFA500"/>
<stop offset="1" stop-color="#FF9C00"/>
</linearGradient>
<linearGradient id="paint2_linear_168_155" x1="29.0669" y1="26.6129" x2="9.87887" y2="58.2926" gradientUnits="userSpaceOnUse">
<stop stop-color="#FF3A44"/>
<stop offset="1" stop-color="#C31162"/>
</linearGradient>
<linearGradient id="paint3_linear_168_155" x1="8.54072" y1="0.213361" x2="17.1014" y2="14.3622" gradientUnits="userSpaceOnUse">
<stop stop-color="#32A071"/>
<stop offset="0.0685" stop-color="#2DA771"/>
<stop offset="0.4762" stop-color="#15CF74"/>
<stop offset="0.8009" stop-color="#06E775"/>
<stop offset="1" stop-color="#00F076"/>
</linearGradient>
</defs>
</svg>
