<?xml version="1.0" encoding="UTF-8"?>
<svg width="88px" height="80px" viewBox="0 0 88 80" version="1.1" xmlns="http://www.w3.org/2000/svg" xmlns:xlink="http://www.w3.org/1999/xlink">
    <!-- Generator: Sketch 53.2 (72643) - https://sketchapp.com -->
    <title>Group 38</title>
    <desc>Created with Sketch.</desc>
    <g id="Page-1" stroke="none" stroke-width="1" fill="none" fill-rule="evenodd">
        <g id="Desktop-HD-Copy-2" transform="translate(-870.000000, -554.000000)" fill="#444444">
            <g id="Group-38" transform="translate(870.000000, 554.000000)">
                <g id="diploma" fill-rule="nonzero">
                    <path d="M83.1296942,0 L4.76730146,0 C2.13854609,0 5.68434189e-14,2.13854609 5.68434189e-14,4.76730146 L5.68434189e-14,22.0285676 C5.68434189e-14,22.7461106 0.582081545,23.3288627 1.30029511,23.3288627 C2.0185085,23.3288627 2.60059021,22.7461106 2.60059021,22.0285676 L2.60059021,4.76730146 C2.60059021,3.57296137 3.57296137,2.60059021 4.76730146,2.60059021 L83.1296942,2.60059021 C84.3247049,2.60059021 85.2964055,3.57296137 85.2964055,4.76730146 L85.2964055,56.7777629 C85.2964055,57.9727736 84.3240343,58.9444742 83.1296942,58.9444742 L56.2097639,58.9444742 C56.2976127,58.3503219 56.3438841,57.7427574 56.3438841,57.123793 C56.3438841,56.5054989 56.2976127,55.8979346 56.2097639,55.3037821 L73.0740343,55.3037821 C73.7922479,55.3037821 74.3743294,54.7217006 74.3743294,54.003487 C74.3743294,50.7054721 77.0574034,48.0223981 80.3554184,48.0223981 C81.0736319,48.0223981 81.6557135,47.4403166 81.6557135,46.722103 L81.6557135,24.6036748 C81.6557135,23.8854613 81.0736319,23.3033799 80.3554184,23.3033799 C79.637205,23.3033799 79.0551234,23.8854613 79.0551234,24.6036748 L79.0551234,45.5203863 C75.3621245,46.0843615 72.4356223,49.0101931 71.8723176,52.7031921 L55.5264216,52.7031921 C53.7419528,48.0458692 49.2261267,44.7284067 43.9484979,44.7284067 C38.670869,44.7284067 34.1550429,48.0458692 32.3705741,52.7031921 L16.0246781,52.7031921 C15.4613734,49.0101931 12.5348712,46.0843615 8.84187227,45.5203863 L8.84187227,16.0246781 C12.5348712,15.4607028 15.4613734,12.5348712 16.0246781,8.84187227 L71.8723176,8.84187227 C72.4362929,12.5348712 75.3621245,15.4607028 79.0551234,16.0246781 L79.0551234,18.5394314 C79.0551234,19.2576448 79.6378755,19.8397264 80.3554184,19.8397264 C81.0736319,19.8397264 81.6557135,19.2576448 81.6557135,18.5394314 L81.6557135,14.8229614 C81.6557135,14.1047478 81.0736319,13.5226663 80.3554184,13.5226663 C77.0574034,13.5226663 74.3743294,10.8395923 74.3743294,7.54157734 C74.3743294,6.82336378 73.7922479,6.24128223 73.0740343,6.24128223 L14.8229614,6.24128223 C14.1047478,6.24128223 13.5226663,6.82336378 13.5226663,7.54157734 C13.5226663,10.8395923 10.8395923,13.5226663 7.54157734,13.5226663 C6.82336378,13.5226663 6.24128223,14.1047478 6.24128223,14.8229614 L6.24128223,46.722103 C6.24128223,47.4403166 6.82336378,48.0223981 7.54157734,48.0223981 C10.8395923,48.0223981 13.5226663,50.7054721 13.5226663,54.003487 C13.5226663,54.7217006 14.1047478,55.3037821 14.8229614,55.3037821 L31.6872318,55.3037821 C31.599383,55.8986052 31.5531116,56.5061696 31.5531116,57.1244635 C31.5531116,57.7427574 31.599383,58.3503219 31.6872318,58.9451449 L4.76730146,58.9451449 C3.57229082,58.9451449 2.60059021,57.9727736 2.60059021,56.7777629 L2.60059021,28.0747049 C2.60059021,27.3564913 2.0185085,26.77441 1.30029511,26.77441 C0.582081545,26.77441 6.17226823e-14,27.3564913 6.17226823e-14,28.0747049 L6.17226823e-14,56.7777629 C6.17226823e-14,59.4065183 2.13854609,61.5450644 4.76730146,61.5450644 L32.3705741,61.5450644 C32.809147,62.6904506 33.4133583,63.7540237 34.1530311,64.707618 L34.1530311,78.6219152 C34.1530311,79.0551234 34.3689646,79.4594956 34.7284067,79.7009119 C35.0878488,79.9423282 35.5438573,79.9892704 35.9448766,79.8256438 L43.9484979,76.5584764 L51.9521191,79.8256438 C52.1103809,79.8900215 52.2773605,79.9222103 52.442999,79.9222103 C52.6978273,79.9222103 52.9513143,79.847103 53.168589,79.7009119 C53.5280311,79.4594956 53.7439646,79.0551234 53.7439646,78.6219152 L53.7439646,74.9027629 C53.7439646,74.1845494 53.1612124,73.6024678 52.4436695,73.6024678 C51.725456,73.6024678 51.1433744,74.1845494 51.1433744,74.9027629 L51.1433744,76.6865612 L44.4400482,73.9505097 C44.1248659,73.8224249 43.7721298,73.8224249 43.4569475,73.9505097 L36.7536213,76.6865612 L36.7536213,67.2089593 C38.7842007,68.6614807 41.2674355,69.5198498 43.9484979,69.5198498 C46.6295602,69.5198498 49.112795,68.6614807 51.1433744,67.2089593 L51.1433744,68.8264484 C51.1433744,69.544662 51.725456,70.1267435 52.4436695,70.1267435 C53.1612124,70.1267435 53.7439646,69.544662 53.7439646,68.8264484 L53.7439646,64.707618 C54.4836374,63.7540237 55.0878488,62.6904506 55.5264216,61.5450644 L83.1296942,61.5450644 C85.7584496,61.5450644 87.8969957,59.4065183 87.8969957,56.7777629 L87.8969957,4.76730146 C87.8969957,2.13854609 85.7584496,3.4154844e-14 83.1296942,3.4154844e-14 L83.1296942,0 Z M43.9484979,66.9192597 C38.5474785,66.9192597 34.1530311,62.5254829 34.1530311,57.1244635 C34.1530311,51.7234441 38.5474785,47.3289967 43.9484979,47.3289967 C49.3495173,47.3289967 53.7439646,51.7234441 53.7439646,57.1244635 C53.7439646,62.5254829 49.3495173,66.9192597 43.9484979,66.9192597 L43.9484979,66.9192597 Z" id="Shape"></path>
                    <path d="M43.9484979,50.2762876 C40.1723444,50.2762876 37.1003219,53.34831 37.1003219,57.1244635 C37.1003219,60.900617 40.1723444,63.9726395 43.9484979,63.9726395 C47.7246513,63.9726395 50.7966738,60.900617 50.7966738,57.1244635 C50.7966738,53.34831 47.7246513,50.2762876 43.9484979,50.2762876 Z M43.9484979,61.3720494 C41.6060891,61.3720494 39.7009119,59.4662017 39.7009119,57.1244635 C39.7009119,54.7820548 41.6060891,52.8768776 43.9484979,52.8768776 C46.2909066,52.8768776 48.1960838,54.7820548 48.1960838,57.1244635 C48.1960838,59.4662017 46.2909066,61.3720494 43.9484979,61.3720494 Z" id="Shape"></path>
                </g>
                <text id="SLA" font-family="Roboto-Bold, Roboto" font-size="23" font-weight="bold" letter-spacing="0.646875">
                    <tspan x="21" y="36">SLA</tspan>
                </text>
            </g>
        </g>
    </g>
</svg>