<?xml version="1.0" encoding="utf-8"?>
<!-- Generator: Adobe Illustrator 16.0.2, SVG Export Plug-In . SVG Version: 6.00 Build 0)  -->
<!DOCTYPE svg PUBLIC "-//W3C//DTD SVG 1.1//EN" "http://www.w3.org/Graphics/SVG/1.1/DTD/svg11.dtd">
<svg version="1.1" id="Layer_1" xmlns="http://www.w3.org/2000/svg" xmlns:xlink="http://www.w3.org/1999/xlink" x="0px" y="0px"
	 viewBox="0 104.883 612 582.294" enable-background="new 0 104.883 612 582.294"
	 xml:space="preserve">
<g transform="translate(0.000000,1218.000000) scale(0.100000,-0.100000)">
	<path fill="#FAC917" d="M3031.787,11102.139c-51.636-111.885-924.214-1871.383-928.994-1874.254
		c-3.35-1.908-141.523-22.949-307.432-46.855c-165.43-23.906-359.072-51.635-430.313-62.152
		c-70.762-10.523-263.447-38.252-427.925-62.158c-164.473-23.906-355.723-51.637-425.532-61.68
		c-69.805-10.518-213.242-31.08-319.385-46.377l-192.686-28.209l1.436-14.818c1.436-12.91,94.189-105.67,694.717-690.42
		c381.543-371.016,721.968-703.799,757.349-738.701l64.067-64.072l-12.432-75.537c-7.168-41.602-22.471-131.484-34.424-199.854
		c-11.475-68.379-86.064-502.031-164.951-963.428c-78.892-461.387-144.873-844.844-146.309-852.021
		c-2.393-12.422-1.436-13.379,12.91-13.379c11.475,0,263.926,130.527,951.948,492.461L3060,6293.154l936.172-492.471
		c688.018-361.934,940.469-492.461,951.943-492.461c14.346,0,15.303,0.957,12.91,12.91c-1.436,7.646-67.412,391.104-146.309,852.49
		c-78.887,461.396-153.477,895.049-164.951,963.428c-11.953,68.369-27.256,158.252-34.424,199.854l-12.432,75.537l64.063,64.072
		c35.391,34.902,376.289,367.686,757.354,738.701c600.527,584.75,693.281,677.51,694.717,690.42l1.436,14.818l-192.686,28.209
		c-106.143,15.297-249.58,35.859-319.385,46.377c-69.805,10.043-261.055,37.773-425.537,61.68
		c-164.473,23.906-356.68,51.635-427.92,62.158c-70.762,10.518-264.404,38.246-430.313,62.152
		c-165.43,23.906-304.082,44.947-307.432,46.855c-3.35,1.914-216.592,430.313-474.297,952.428
		c-457.09,926.127-469.043,949.076-482.91,950.512C3047.09,11132.26,3045.18,11130.346,3031.787,11102.139z"/>
</g>
<polygon fill="#D5D5D5" points="401.721,295.211 401.617,638.932 494.813,687.178 496.103,685.887 460.291,476.756 611.904,328.437 
	612.048,325.955 "/>
</svg>
