<svg xmlns="http://www.w3.org/2000/svg" viewBox="0 0 250 250"><defs><style>.cls-1{fill:#8cd6f1;}.cls-2{fill:#91cb83;}.cls-3{fill:#ea2127;}.cls-4{fill:#f2f8f9;}.cls-5{fill:#59c8e6;}</style></defs><title>Tenmien</title><g id="Layer_2" data-name="Layer 2"><g id="Layer_1-2" data-name="Layer 1"><path class="cls-1" d="M125,10A115,115,0,0,0,89.62,234.42l34.59-69,34.87,69.46A115,115,0,0,0,125,10Z"/><path class="cls-2" d="M166.74,93.4c.84-1,1.66-1.88,2.46-2.77,4.32-4.78,29.6-32.6,39.92-44a114.8,114.8,0,0,0-164.35-4V72.42L44.7,73a11.83,11.83,0,0,0,.51,5.16C46.88,80.74,58,93,67.32,102.94L76,112.55c-.42-3.48-1.23-11.21,5.57-14.77a10.91,10.91,0,0,1,5.06-1.24c5.86,0,10.23,4.51,13.73,8.91.61.77,1.21,1.5,1.79,2.21,3.58,4.37,7,8.5,7.09,13.85,0,1.46.07,40.29.09,73.65l14.92-29.77,20,39.76,23.52-25c.54-.8,2.26-3.68,5-11.18,4.69-12.69,14.65-40.36,15.44-42.57,0,0,0-.08,0-.12-7-.1-28.56-.15-42.75-.16a18.53,18.53,0,0,1-2,.12c-6.08,0-10.92-3.29-12.63-8.58a29.06,29.06,0,0,1,10.59-31.2c3.48-2.69,6.23-4.81,10.34-4.81a11,11,0,0,1,6,1.84c5.66,3.62,5.76,9.4,5.44,13.76C164.52,95.91,165.8,94.46,166.74,93.4Z"/><polygon class="cls-3" points="104.18 250 124.22 210 144.3 250 104.18 250"/><path class="cls-4" d="M14.54,149.48A135.48,135.48,0,0,1,150,14c1.86,0,3.7.05,5.54.13A115,115,0,0,0,14.8,157.89C14.63,155.11,14.54,152.3,14.54,149.48Z"/><path class="cls-4" d="M150,14c1.86,0,3.7.05,5.54.13A114.84,114.84,0,0,0,44.77,42.7V64.18A135.2,135.2,0,0,1,150,14Z"/><path d="M125,0A125,125,0,0,0,85.07,243.49q4.8,1.6,9.76,2.84l13.07-26.08,1.4-2.8,14.92-29.76,12.65,25.2,2.92,5.83,14,27.93c3.32-.79,6.6-1.7,9.81-2.74A125,125,0,0,0,125,0ZM89.62,234.42A114.92,114.92,0,0,1,34.77,53.78V71.86s-.91,7.13,2,11.72S60,109.79,60,109.79l12.42,13.8s3.85,4.77,9.28,2.07,4.43-11.92,4.26-13.45-.74-5.09.18-5.58,3,.81,6.32,5,6.66,7.72,6.72,10.09c0,1.65.07,58.48.09,93.33Zm34.59-69-14.92,29.77c0-33.35-.05-72.19-.09-73.65-.13-5.35-3.51-9.48-7.09-13.85-.58-.71-1.18-1.44-1.79-2.21-3.5-4.4-7.87-8.91-13.73-8.91a10.91,10.91,0,0,0-5.06,1.24c-6.8,3.56-6,11.29-5.57,14.77l-8.64-9.61C58,93,46.88,80.74,45.21,78.2A11.83,11.83,0,0,1,44.7,73l.08-.62V42.66a114.82,114.82,0,0,1,164.34,4C198.79,58,173.52,85.85,169.2,90.63c-.8.89-1.62,1.82-2.46,2.77s-2.22,2.51-3.51,3.9c.32-4.36.22-10.14-5.44-13.76a11,11,0,0,0-6-1.84c-4.11,0-6.86,2.12-10.34,4.81a29.06,29.06,0,0,0-10.59,31.2c1.71,5.29,6.55,8.58,12.63,8.58a18.53,18.53,0,0,0,2-.12c14.19,0,35.73.06,42.75.16,0,0,0,.09,0,.12-.79,2.21-10.75,29.88-15.44,42.57-2.77,7.5-4.49,10.38-5,11.18l-23.52,25Zm34.87,69.46-10.14-20.19,25.66-27.2s2.57-1.63,7.5-15,15.52-42.78,15.52-42.78,2.06-6.12,0-9.33a7.67,7.67,0,0,0-6.67-4c-2.45-.19-46.19-.22-46.19-.22s-3.69.74-4.43-1.54a19.27,19.27,0,0,1,7.19-20.2c4-3.08,4.11-3,4.89-2.46s1.16,1.06.74,5.89,2.62,12.86,7,13.35,10.95-7.81,16.43-13.88c4.23-4.67,28.26-31.13,39-43a114.93,114.93,0,0,1-56.58,180.51Z"/><path class="cls-5" d="M239.94,122.38c0-.44,0-.89,0-1.34a115.18,115.18,0,0,0-4.72-28.51q.26,4.17.26,8.4a135.58,135.58,0,0,1-42.77,98.79l-.08.07c-.84.79-1.7,1.57-2.57,2.35l-.22.19c-.84.75-1.69,1.48-2.55,2.21l-.22.18c-.9.76-1.81,1.51-2.73,2.24l0,0a137.18,137.18,0,0,1-11.94,8.49l-.36.22c-.89.56-1.78,1.11-2.67,1.64l-.58.34c-.84.5-1.68,1-2.54,1.46l-.64.36c-.86.48-1.72.94-2.59,1.4l-.6.31c-.94.5-1.89,1-2.85,1.44l-.35.18c-1.63.79-3.29,1.54-5,2.27l4.89,9.74A115.23,115.23,0,0,0,240,125.2C240,124.25,240,123.32,239.94,122.38Z"/></g></g></svg>