<svg xmlns="http://www.w3.org/2000/svg" viewBox="0 0 360.43 204.26"><defs><style>.cls-1{fill:#fff;}.cls-2{fill:#ffd04f;}.cls-3{fill:#282828;}</style></defs><title>Uudai</title><g id="Layer_2" data-name="Layer 2"><g id="Layer_1-2" data-name="Layer 1"><path class="cls-1" d="M317,99.49c-.62-14,9.63-26.27,22.42-30.63V9.32H11.58V70.13c15.83,2.19,27.16,16,27.88,32s-12.7,29.66-27.88,32v50.13H339.43v-54C326.51,126,317.64,113.62,317,99.49Z"/><path class="cls-2" d="M319.65,100.81c-.72-16.23,13.23-30.21,28.78-32.09V17.32H20.58V73C33,77.54,41.48,89.65,42.1,103.45c.61,13.64-9.15,25.7-21.52,30.31v58.46H348.43v-59.3C332.13,131.14,320.39,117.15,319.65,100.81Z"/><g id="Page-1"><g id="Mobile-Nav-1_open" data-name="Mobile-Nav-1 open"><g id="Group-28"><rect id="Rectangle" class="cls-3" x="108.2" y="120.2" width="18.02" height="18.02"/><rect id="Rectangle-2" data-name="Rectangle" class="cls-3" x="108.06" y="144.1" width="18.02" height="18.02"/><rect id="Rectangle-3" data-name="Rectangle" class="cls-3" x="108.06" y="168.14" width="18.02" height="18.02"/><rect id="Rectangle-4" data-name="Rectangle" class="cls-3" x="108.2" y="96.2" width="18.02" height="18.02"/><rect id="Rectangle-5" data-name="Rectangle" class="cls-3" x="108.2" y="72.16" width="18.02" height="18.02"/><rect id="Rectangle-6" data-name="Rectangle" class="cls-3" x="108.2" y="48.12" width="18.02" height="18.02"/><rect id="Rectangle-7" data-name="Rectangle" class="cls-3" x="108.2" y="24.11" width="18.02" height="18.02"/><path id="Shape" class="cls-3" d="M181.4,60.08a16.84,16.84,0,1,0,16.84,16.84A16.84,16.84,0,0,0,181.4,60.08Zm0,25.23a8.38,8.38,0,1,1,6-2.44,8.39,8.39,0,0,1-6,2.44Z"/><path id="Shape-2" data-name="Shape" class="cls-3" d="M231.87,110.54a16.84,16.84,0,1,0,16.83,16.84,16.84,16.84,0,0,0-16.83-16.84Zm0,25.23a8.38,8.38,0,1,1,6-2.44,8.4,8.4,0,0,1-6,2.44Z"/><polygon id="Rectangle-8" data-name="Rectangle" class="cls-3" points="170.04 132.81 237.32 65.53 243.26 71.46 175.98 138.75 170.04 132.81"/><polygon id="Path" class="cls-3" points="5.12 178.49 25.77 199.17 36.04 168.21 5.12 178.49"/><path id="Path-2" data-name="Path" class="cls-3" d="M354.41,72.09a6,6,0,0,0,6-6V6a6,6,0,0,0-6-6H6A6,6,0,0,0,0,6V66.07a6,6,0,0,0,6,6,30.06,30.06,0,0,1,0,60.08,6,6,0,0,0-6,6v23.18l12-5.12V143.74a42.06,42.06,0,0,0,0-83.26V12H348.43V60.48a42.06,42.06,0,0,0,0,83.26v48.48H40.62l5.3,12H354.41a6,6,0,0,0,6-6V138.15a6,6,0,0,0-6-6,30.06,30.06,0,0,1,0-60.08Z"/></g></g></g></g></g></svg>